<svg width="438" height="538" viewBox="0 0 438 538" fill="none" xmlns="http://www.w3.org/2000/svg">
<g filter="url(#filter0_d_148_2)">
<rect x="14" y="12" width="400" height="500" rx="30" fill="white"/>
<rect x="19" y="17" width="390" height="490" rx="25" stroke="url(#paint0_linear_148_2)" stroke-width="10"/>
</g>
<path d="M14 274C14 274 72.8877 289.867 111.5 290.5C154.257 291.2 176.988 273.787 219.75 274C261.161 274.206 283.102 291.58 324.5 290.5C360.029 289.573 414 274 414 274V483C414 499.569 400.569 513 384 513H44C27.4315 513 14 499.569 14 483V274Z" fill="url(#paint1_linear_148_2)"/>
<defs>
<filter id="filter0_d_148_2" x="0.5" y="0.5" width="437" height="537" filterUnits="userSpaceOnUse" color-interpolation-filters="sRGB">
<feFlood flood-opacity="0" result="BackgroundImageFix"/>
<feColorMatrix in="SourceAlpha" type="matrix" values="0 0 0 0 0 0 0 0 0 0 0 0 0 0 0 0 0 0 127 0" result="hardAlpha"/>
<feMorphology radius="6" operator="dilate" in="SourceAlpha" result="effect1_dropShadow_148_2"/>
<feOffset dx="5" dy="7"/>
<feGaussianBlur stdDeviation="6.25"/>
<feComposite in2="hardAlpha" operator="out"/>
<feColorMatrix type="matrix" values="0 0 0 0 0 0 0 0 0 0 0 0 0 0 0 0 0 0 0.25 0"/>
<feBlend mode="normal" in2="BackgroundImageFix" result="effect1_dropShadow_148_2"/>
<feBlend mode="normal" in="SourceGraphic" in2="effect1_dropShadow_148_2" result="shape"/>
</filter>
<linearGradient id="paint0_linear_148_2" x1="22.5" y1="21.5" x2="404.5" y2="500" gradientUnits="userSpaceOnUse">
<stop stop-color="#26323B"/>
<stop offset="1" stop-color="#2B6F7E"/>
</linearGradient>
<linearGradient id="paint1_linear_148_2" x1="23.5" y1="20.5" x2="403.5" y2="504.5" gradientUnits="userSpaceOnUse">
<stop stop-color="#26323B"/>
<stop offset="1" stop-color="#2B6F7E"/>
</linearGradient>
</defs>
</svg>
