<svg width="2048" height="922" viewBox="0 0 2048 922" fill="none" xmlns="http://www.w3.org/2000/svg">
<path d="M2050 884.064C2050 884.064 1908.32 919.579 1815.77 920.064C1670.74 920.823 1670.13 831.435 1453.92 836.564C1237.71 841.692 1193.6 923.768 1025 921.064C862.333 918.454 792.773 829.564 636.121 829.564C479.468 829.564 462.451 921.064 301.794 921.064C141.138 921.064 0 872.564 0 872.564V94.5644H256.25H512.5H1025L1537.5 94.5644H1793.75H2050V884.064Z" fill="url(#paint0_linear_164_39)"/>
<path d="M0 37.0653C0 37.0653 141.682 1.55029 234.229 1.06537C379.26 0.305437 379.871 89.6935 596.082 84.5653C812.292 79.4371 856.402 -2.63892 1025 0.0653668C1187.67 2.67452 1257.23 91.5653 1413.88 91.5653C1570.53 91.5653 1587.55 0.0653501 1748.21 0.0653668C1908.86 0.0653835 2050 48.5653 2050 48.5653V826.565H1793.75H1537.5H1025H512.5H256.25H0V37.0653Z" fill="url(#paint1_linear_164_39)"/>
<defs>
<linearGradient id="paint0_linear_164_39" x1="1025" y1="5.56446" x2="1025" y2="921.564" gradientUnits="userSpaceOnUse">
<stop stop-color="#2B6F7E"/>
<stop offset="1" stop-color="#33B4AE"/>
</linearGradient>
<linearGradient id="paint1_linear_164_39" x1="1025" y1="-0.435547" x2="1025" y2="923.564" gradientUnits="userSpaceOnUse">
<stop stop-color="#2B6F7E"/>
<stop offset="1" stop-color="#33B4AE"/>
</linearGradient>
</defs>
</svg>
