<svg width="80" height="80" viewBox="0 0 80 80" fill="none" xmlns="http://www.w3.org/2000/svg">
<g clip-path="url(#clip0_139_177)">
<path fill-rule="evenodd" clip-rule="evenodd" d="M57.5 42.5H31.035L41.34 52.8C42.315 53.775 42.315 55.3751 41.34 56.3501C40.3625 57.3251 38.78 57.3251 37.8025 56.3501L23.66 42.2C23.0625 41.6 22.875 40.775 23.0125 40C22.875 39.225 23.0625 38.4 23.66 37.8L37.8025 23.6499C38.78 22.6749 40.3625 22.6749 41.34 23.6499C42.315 24.6499 42.315 26.225 41.34 27.2L31.035 37.5H57.5C58.88 37.5 60 38.625 60 40C60 41.375 58.88 42.5 57.5 42.5ZM40 0C17.91 0 0 17.9 0 40C0 62.1 17.91 80 40 80C62.09 80 80 62.1 80 40C80 17.9 62.09 0 40 0Z" fill="url(#paint0_linear_139_177)"/>
</g>
<defs>
<linearGradient id="paint0_linear_139_177" x1="-17.5" y1="-25.5" x2="71" y2="80" gradientUnits="userSpaceOnUse">
<stop stop-color="#26323B"/>
<stop offset="0.880598" stop-color="#2B6F7E"/>
</linearGradient>
<clipPath id="clip0_139_177">
<rect width="80" height="80" fill="white"/>
</clipPath>
</defs>
</svg>
