<svg width="80" height="80" viewBox="0 0 80 80" fill="none" xmlns="http://www.w3.org/2000/svg">
<g clip-path="url(#clip0_139_181)">
<path fill-rule="evenodd" clip-rule="evenodd" d="M56.3375 42.2L42.1975 56.3501C41.22 57.3251 39.6375 57.3251 38.6625 56.3501C37.685 55.3751 37.685 53.775 38.6625 52.8L48.965 42.5H22.5C21.1175 42.5 20 41.375 20 40C20 38.625 21.1175 37.5 22.5 37.5H48.965L38.6625 27.2C37.685 26.225 37.685 24.6499 38.6625 23.6499C39.6375 22.6749 41.22 22.6749 42.1975 23.6499L56.3375 37.8C56.9375 38.4 57.125 39.225 56.9875 40C57.125 40.775 56.9375 41.6 56.3375 42.2ZM40 0C17.9075 0 0 17.9 0 40C0 62.1 17.9075 80 40 80C62.0925 80 80 62.1 80 40C80 17.9 62.0925 0 40 0Z" fill="url(#paint0_linear_139_181)"/>
</g>
<defs>
<linearGradient id="paint0_linear_139_181" x1="-31" y1="-38" x2="70" y2="80" gradientUnits="userSpaceOnUse">
<stop stop-color="#26323B"/>
<stop offset="1" stop-color="#2B6F7E"/>
</linearGradient>
<clipPath id="clip0_139_181">
<rect width="80" height="80" fill="white"/>
</clipPath>
</defs>
</svg>
