<svg width="800" height="800" viewBox="0 0 800 800" fill="none" xmlns="http://www.w3.org/2000/svg">
<path d="M464.609 625.312H212.812C204.453 625.312 197.656 632.109 197.656 640.469C197.656 648.828 204.453 655.625 212.812 655.625H464.609C472.969 655.625 479.766 648.828 479.766 640.469C479.766 632.031 472.969 625.312 464.609 625.312Z" fill="#2B6F7E"/>
<path d="M713.203 602.656V633.125H756.25C749.922 615.391 733.047 602.656 713.203 602.656Z" fill="#E6E6E6"/>
<path d="M637.187 528.047V183.75C637.187 171.172 626.953 161.016 614.453 161.016H62.9687C50.3906 161.016 40.2344 171.25 40.2344 183.75V528.047C40.2344 540.625 50.4687 550.781 62.9687 550.781H614.453C627.031 550.859 637.187 540.625 637.187 528.047ZM602.891 495.234C602.891 507.734 592.656 517.969 580.156 517.969H97.3437C84.8437 517.969 74.6094 507.734 74.6094 495.234V216.641C74.6094 204.141 84.8437 193.906 97.3437 193.906H580.156C592.656 193.906 602.891 204.141 602.891 216.641V495.234Z" fill="white"/>
<path d="M580.156 193.906H97.3437C84.8437 193.906 74.6094 204.141 74.6094 216.641V495.234C74.6094 507.734 84.8437 517.969 97.3437 517.969H580.156C592.656 517.969 602.891 507.734 602.891 495.234V216.641C602.891 204.141 592.656 193.906 580.156 193.906ZM171.328 219.062C171.328 217.812 172.344 216.875 173.516 216.875H221.406C222.656 216.875 223.594 217.891 223.594 219.062V232.734C223.594 233.984 222.578 234.922 221.406 234.922H173.516C172.266 234.922 171.328 233.906 171.328 232.734V219.062ZM147.656 216.328C152.812 216.328 156.953 220.469 156.953 225.625C156.953 230.781 152.812 234.922 147.656 234.922C142.5 234.922 138.359 230.781 138.359 225.625C138.359 220.469 142.578 216.328 147.656 216.328ZM117.188 216.328C122.344 216.328 126.484 220.469 126.484 225.625C126.484 230.781 122.344 234.922 117.188 234.922C112.031 234.922 107.891 230.781 107.891 225.625C107.891 220.469 112.031 216.328 117.188 216.328ZM302.578 358.281C302.578 411.25 259.453 454.375 206.484 454.375C153.516 454.375 110.391 411.25 110.391 358.281C110.391 305.313 153.516 262.188 206.484 262.188H214.062V350.703H302.578V358.281ZM232.188 328.047V254.063C273.047 254.063 306.172 287.187 306.172 328.047H232.188ZM524.062 444.375H414.141C409.922 444.375 406.563 441.016 406.563 436.797C406.563 432.578 409.922 429.219 414.141 429.219H524.062C528.281 429.219 531.641 432.578 531.641 436.797C531.641 440.937 528.281 444.375 524.062 444.375ZM524.062 387.109H410.313C406.094 387.109 402.734 383.75 402.734 379.531C402.734 375.312 406.094 371.953 410.313 371.953H524.062C528.281 371.953 531.641 375.312 531.641 379.531C531.641 383.75 528.281 387.109 524.062 387.109ZM524.062 329.766H360.313C356.094 329.766 352.734 326.406 352.734 322.187C352.734 317.969 356.094 314.609 360.313 314.609H524.141C528.359 314.609 531.719 317.969 531.719 322.187C531.719 326.406 528.281 329.766 524.062 329.766ZM524.062 272.5H360.313C356.094 272.5 352.734 269.141 352.734 264.922C352.734 260.703 356.094 257.344 360.313 257.344H524.141C528.359 257.344 531.719 260.703 531.719 264.922C531.719 269.141 528.281 272.5 524.062 272.5Z" fill="#E6E6E6"/>
<path d="M198.906 277.734C157.813 281.563 125.547 316.25 125.547 358.281C125.547 402.891 161.875 439.219 206.484 439.219C248.516 439.219 283.203 406.953 287.031 365.859H198.906V277.734Z" fill="white"/>
<path d="M214.062 262.188H206.484C153.516 262.188 110.391 305.312 110.391 358.281C110.391 411.25 153.516 454.375 206.484 454.375C259.453 454.375 302.578 411.25 302.578 358.281V350.703H214.062V262.188ZM287.031 365.937C283.203 407.031 248.516 439.297 206.484 439.297C161.875 439.297 125.547 402.969 125.547 358.359C125.547 316.328 157.813 281.641 198.906 277.812V365.937H287.031Z" fill="#2B6F7E"/>
<path d="M232.188 254.062V328.047H306.172C306.172 287.187 273.047 254.062 232.188 254.062Z" fill="#2B6F7E"/>
<path d="M107.891 225.625C107.891 228.091 108.87 230.455 110.614 232.199C112.357 233.942 114.722 234.922 117.187 234.922C119.653 234.922 122.018 233.942 123.761 232.199C125.505 230.455 126.484 228.091 126.484 225.625C126.484 223.159 125.505 220.795 123.761 219.051C122.018 217.308 119.653 216.328 117.187 216.328C114.722 216.328 112.357 217.308 110.614 219.051C108.87 220.795 107.891 223.159 107.891 225.625Z" fill="white"/>
<path d="M138.359 225.625C138.359 228.091 139.339 230.455 141.082 232.199C142.826 233.942 145.191 234.922 147.656 234.922C150.122 234.922 152.487 233.942 154.23 232.199C155.974 230.455 156.953 228.091 156.953 225.625C156.953 223.159 155.974 220.795 154.23 219.051C152.487 217.308 150.122 216.328 147.656 216.328C145.191 216.328 142.826 217.308 141.082 219.051C139.339 220.795 138.359 223.159 138.359 225.625Z" fill="white"/>
<path d="M173.516 234.922H221.406C222.656 234.922 223.594 233.906 223.594 232.734V219.062C223.594 217.812 222.578 216.875 221.406 216.875H173.516C172.266 216.875 171.328 217.891 171.328 219.062V232.734C171.328 233.984 172.344 234.922 173.516 234.922Z" fill="white"/>
<path d="M713.203 572.266C676.484 572.266 645.781 598.438 638.75 633.047H548.359C539.219 633.047 532.578 631.25 530.234 628.125C528.672 626.016 528.672 622.656 528.672 621.094V581.172H614.531C643.828 581.172 667.578 557.344 667.578 528.125V183.75C667.578 154.453 643.75 130.703 614.531 130.703H62.9688C33.6719 130.703 9.92188 154.531 9.92188 183.75V528.047C9.92188 557.344 33.75 581.094 62.9688 581.094H498.281V621.094C498.281 624.844 498.281 636.172 506.016 646.406C514.531 657.656 528.75 663.359 548.359 663.359H789.141V648.203C789.141 606.328 755.078 572.266 713.203 572.266ZM62.9688 550.859C50.3906 550.859 40.2344 540.625 40.2344 528.125V183.75C40.2344 171.172 50.4688 161.016 62.9688 161.016H614.453C627.031 161.016 637.187 171.25 637.187 183.75V528.047C637.187 540.625 626.953 550.781 614.453 550.781H62.9688V550.859ZM713.203 633.047H670.156C676.406 615.312 693.359 602.578 713.203 602.578C733.047 602.578 750 615.312 756.25 633.047H713.203Z" fill="#2B6F7E"/>
<path d="M524.062 257.344H360.313C356.094 257.344 352.734 260.703 352.734 264.922C352.734 269.141 356.094 272.5 360.313 272.5H524.141C528.359 272.5 531.719 269.141 531.719 264.922C531.719 260.703 528.281 257.344 524.062 257.344Z" fill="#2B6F7E"/>
<path d="M524.062 314.609H360.313C356.094 314.609 352.734 317.969 352.734 322.187C352.734 326.406 356.094 329.766 360.313 329.766H524.141C528.359 329.766 531.719 326.406 531.719 322.187C531.719 317.969 528.281 314.609 524.062 314.609ZM524.062 371.953H410.313C406.094 371.953 402.734 375.312 402.734 379.531C402.734 383.75 406.094 387.109 410.313 387.109H524.062C528.281 387.109 531.641 383.75 531.641 379.531C531.641 375.312 528.281 371.953 524.062 371.953Z" fill="#33B4AE"/>
<path d="M524.062 429.219H414.141C409.922 429.219 406.562 432.578 406.562 436.797C406.562 441.016 409.922 444.375 414.141 444.375H524.062C528.281 444.375 531.641 441.016 531.641 436.797C531.641 432.578 528.281 429.219 524.062 429.219Z" fill="#2B6F7E"/>
</svg>
