<svg width="261" height="261" viewBox="0 0 261 261" fill="none" xmlns="http://www.w3.org/2000/svg">
<path d="M83.0408 208.902H69.0223C59.1838 208.902 51.1805 200.899 51.1805 191.06V130.016C51.1805 120.177 59.1838 112.174 69.0223 112.174H83.0408C92.8793 112.174 100.883 120.177 100.883 130.016V191.06C100.883 200.899 92.8793 208.902 83.0408 208.902ZM69.0478 122.369C64.8422 122.369 61.4013 125.81 61.4013 130.016V191.06C61.4013 195.266 64.8422 198.707 69.0478 198.707H83.0663C87.2719 198.707 90.7128 195.266 90.7128 191.06V130.016C90.7128 125.81 87.2719 122.369 83.0663 122.369H69.0478Z" fill="#2B6F7E"/>
<path d="M212.776 45.2927H198.758C194.552 45.2927 191.111 48.7336 191.111 52.9392V191.06C191.111 195.266 194.552 198.707 198.758 198.707H212.776C216.982 198.707 220.423 195.266 220.423 191.06V52.9392C220.423 48.7336 216.982 45.2927 212.776 45.2927ZM147.909 76.6433H133.89C129.684 76.6433 126.243 80.0842 126.243 84.2898V191.06C126.243 195.266 129.684 198.707 133.89 198.707H147.909C152.114 198.707 155.555 195.266 155.555 191.06V84.2898C155.555 80.0842 152.114 76.6433 147.909 76.6433ZM83.0408 122.267H69.0223C64.8167 122.267 61.3758 125.708 61.3758 129.914V191.06C61.3758 195.266 64.8167 198.707 69.0223 198.707H83.0408C87.2464 198.707 90.6873 195.266 90.6873 191.06V129.914C90.6873 125.708 87.2719 122.267 83.0408 122.267Z" fill="#E6E6E6"/>
<path d="M212.776 35.0974H198.758C188.919 35.0974 180.916 43.1007 180.916 52.9392V105.929C176.251 103.737 171.128 102.31 165.75 101.851V84.3152C165.75 74.4768 157.747 66.4734 147.909 66.4734H133.89C124.051 66.4734 116.048 74.4768 116.048 84.3152V191.086C116.048 200.924 124.051 208.927 133.89 208.927H147.909C157.645 208.927 165.572 201.103 165.75 191.417C171.128 190.958 176.251 189.531 180.916 187.339V191.086C180.916 200.924 188.919 208.927 198.758 208.927H212.776C222.615 208.927 230.618 200.924 230.618 191.086V52.9392C230.618 43.1007 222.589 35.0974 212.776 35.0974ZM191.111 127.875C194.578 133.278 196.591 139.701 196.591 146.609C196.591 153.49 194.578 159.913 191.111 165.342V127.875ZM127.085 146.609C127.085 129.582 139.37 115.385 155.555 112.429V180.788C139.37 177.832 127.085 163.635 127.085 146.609ZM133.89 76.6433H147.909C152.114 76.6433 155.555 80.0842 155.555 84.2898V102.106C143.677 103.788 133.278 110.109 126.243 119.183V84.2898C126.243 80.0842 129.684 76.6433 133.89 76.6433ZM147.909 198.707H133.89C129.684 198.707 126.243 195.266 126.243 191.06V174.034C133.253 183.108 143.652 189.454 155.555 191.111C155.53 195.317 152.114 198.707 147.909 198.707ZM165.75 181.145V112.072C171.307 112.684 176.455 114.621 180.916 117.577V175.665C176.455 178.596 171.307 180.533 165.75 181.145ZM191.111 191.06V186.753L202.989 198.707H198.758C194.527 198.707 191.111 195.291 191.111 191.06ZM220.423 191.06C220.423 193.94 218.817 196.464 216.447 197.764L195.342 176.557C202.453 168.605 206.786 158.104 206.786 146.609C206.786 132.998 200.695 120.763 191.111 112.531V52.9392C191.111 48.7336 194.552 45.2927 198.758 45.2927H212.776C216.982 45.2927 220.423 48.7336 220.423 52.9392V191.06ZM227.406 224.628H224.858C223.456 224.628 222.309 223.481 222.309 222.079C222.309 220.678 223.456 219.531 224.858 219.531H227.406C228.808 219.531 229.955 220.678 229.955 222.079C229.955 223.481 228.834 224.628 227.406 224.628ZM214.662 224.628H212.113C210.712 224.628 209.565 223.481 209.565 222.079C209.565 220.678 210.712 219.531 212.113 219.531H214.662C216.064 219.531 217.211 220.678 217.211 222.079C217.211 223.481 216.09 224.628 214.662 224.628ZM201.918 224.628H199.369C197.967 224.628 196.821 223.481 196.821 222.079C196.821 220.678 197.967 219.531 199.369 219.531H201.918C203.32 219.531 204.467 220.678 204.467 222.079C204.467 223.481 203.346 224.628 201.918 224.628ZM189.174 224.628H186.625C185.223 224.628 184.076 223.481 184.076 222.079C184.076 220.678 185.223 219.531 186.625 219.531H189.174C190.576 219.531 191.723 220.678 191.723 222.079C191.723 223.481 190.601 224.628 189.174 224.628ZM176.43 224.628H173.881C172.479 224.628 171.332 223.481 171.332 222.079C171.332 220.678 172.479 219.531 173.881 219.531H176.43C177.832 219.531 178.979 220.678 178.979 222.079C178.979 223.481 177.857 224.628 176.43 224.628ZM163.686 224.628H161.137C159.735 224.628 158.588 223.481 158.588 222.079C158.588 220.678 159.735 219.531 161.137 219.531H163.686C165.088 219.531 166.235 220.678 166.235 222.079C166.235 223.481 165.113 224.628 163.686 224.628ZM150.942 224.628H148.393C146.991 224.628 145.844 223.481 145.844 222.079C145.844 220.678 146.991 219.531 148.393 219.531H150.942C152.343 219.531 153.49 220.678 153.49 222.079C153.49 223.481 152.369 224.628 150.942 224.628ZM138.197 224.628H135.649C134.247 224.628 133.1 223.481 133.1 222.079C133.1 220.678 134.247 219.531 135.649 219.531H138.197C139.599 219.531 140.746 220.678 140.746 222.079C140.746 223.481 139.625 224.628 138.197 224.628ZM125.453 224.628H122.905C121.503 224.628 120.356 223.481 120.356 222.079C120.356 220.678 121.503 219.531 122.905 219.531H125.453C126.855 219.531 128.002 220.678 128.002 222.079C128.002 223.481 126.881 224.628 125.453 224.628ZM112.709 224.628H110.16C108.759 224.628 107.612 223.481 107.612 222.079C107.612 220.678 108.759 219.531 110.16 219.531H112.709C114.111 219.531 115.258 220.678 115.258 222.079C115.258 223.481 114.137 224.628 112.709 224.628ZM99.9651 224.628H97.4162C96.0144 224.628 94.8674 223.481 94.8674 222.079C94.8674 220.678 96.0144 219.531 97.4162 219.531H99.9651C101.367 219.531 102.514 220.678 102.514 222.079C102.514 223.481 101.392 224.628 99.9651 224.628ZM87.2209 224.628H84.6721C83.2702 224.628 82.1233 223.481 82.1233 222.079C82.1233 220.678 83.2702 219.531 84.6721 219.531H87.2209C88.6228 219.531 89.7697 220.678 89.7697 222.079C89.7697 223.481 88.6483 224.628 87.2209 224.628ZM74.4768 224.628H71.9279C70.5261 224.628 69.3791 223.481 69.3791 222.079C69.3791 220.678 70.5261 219.531 71.9279 219.531H74.4768C75.8786 219.531 77.0256 220.678 77.0256 222.079C77.0256 223.481 75.9041 224.628 74.4768 224.628ZM61.7326 224.628H59.1838C57.7819 224.628 56.635 223.481 56.635 222.079C56.635 220.678 57.7819 219.531 59.1838 219.531H61.7326C63.1345 219.531 64.2815 220.678 64.2815 222.079C64.2815 223.481 63.16 224.628 61.7326 224.628ZM48.9885 224.628H46.4397C45.0378 224.628 43.8908 223.481 43.8908 222.079C43.8908 220.678 45.0378 219.531 46.4397 219.531H48.9885C50.3903 219.531 51.5373 220.678 51.5373 222.079C51.5373 223.481 50.4158 224.628 48.9885 224.628ZM36.2443 224.628H33.6955C32.2937 224.628 31.1467 223.481 31.1467 222.079C31.1467 220.678 32.2937 219.531 33.6955 219.531H36.2443C37.6462 219.531 38.7932 220.678 38.7932 222.079C38.7932 223.481 37.6717 224.628 36.2443 224.628ZM32.574 215.554C31.1722 215.554 30.0252 214.407 30.0252 213.006V210.457C30.0252 209.055 31.1722 207.908 32.574 207.908C33.9759 207.908 35.1229 209.055 35.1229 210.457V213.006C35.1229 214.407 33.9759 215.554 32.574 215.554ZM32.574 202.81C31.1722 202.81 30.0252 201.663 30.0252 200.261V197.713C30.0252 196.311 31.1722 195.164 32.574 195.164C33.9759 195.164 35.1229 196.311 35.1229 197.713V200.261C35.1229 201.663 33.9759 202.81 32.574 202.81ZM32.574 190.066C31.1722 190.066 30.0252 188.919 30.0252 187.517V184.968C30.0252 183.567 31.1722 182.42 32.574 182.42C33.9759 182.42 35.1229 183.567 35.1229 184.968V187.517C35.1229 188.919 33.9759 190.066 32.574 190.066ZM32.574 177.322C31.1722 177.322 30.0252 176.175 30.0252 174.773V172.224C30.0252 170.822 31.1722 169.675 32.574 169.675C33.9759 169.675 35.1229 170.822 35.1229 172.224V174.773C35.1229 176.175 33.9759 177.322 32.574 177.322ZM32.574 164.578C31.1722 164.578 30.0252 163.431 30.0252 162.029V159.48C30.0252 158.078 31.1722 156.931 32.574 156.931C33.9759 156.931 35.1229 158.078 35.1229 159.48V162.029C35.1229 163.431 33.9759 164.578 32.574 164.578ZM32.574 151.834C31.1722 151.834 30.0252 150.687 30.0252 149.285V146.736C30.0252 145.334 31.1722 144.187 32.574 144.187C33.9759 144.187 35.1229 145.334 35.1229 146.736V149.285C35.1229 150.687 33.9759 151.834 32.574 151.834ZM32.574 139.09C31.1722 139.09 30.0252 137.943 30.0252 136.541V133.992C30.0252 132.59 31.1722 131.443 32.574 131.443C33.9759 131.443 35.1229 132.59 35.1229 133.992V136.541C35.1229 137.943 33.9759 139.09 32.574 139.09ZM32.574 126.345C31.1722 126.345 30.0252 125.198 30.0252 123.797V121.248C30.0252 119.846 31.1722 118.699 32.574 118.699C33.9759 118.699 35.1229 119.846 35.1229 121.248V123.797C35.1229 125.198 33.9759 126.345 32.574 126.345ZM32.574 113.601C31.1722 113.601 30.0252 112.454 30.0252 111.052V108.504C30.0252 107.102 31.1722 105.955 32.574 105.955C33.9759 105.955 35.1229 107.102 35.1229 108.504V111.052C35.1229 112.454 33.9759 113.601 32.574 113.601ZM32.574 100.857C31.1722 100.857 30.0252 99.7102 30.0252 98.3083V95.7595C30.0252 94.3576 31.1722 93.2107 32.574 93.2107C33.9759 93.2107 35.1229 94.3576 35.1229 95.7595V98.3083C35.1229 99.7102 33.9759 100.857 32.574 100.857ZM32.574 88.113C31.1722 88.113 30.0252 86.966 30.0252 85.5642V83.0153C30.0252 81.6135 31.1722 80.4665 32.574 80.4665C33.9759 80.4665 35.1229 81.6135 35.1229 83.0153V85.5642C35.1229 86.966 33.9759 88.113 32.574 88.113ZM32.574 75.3689C31.1722 75.3689 30.0252 74.2219 30.0252 72.82V70.2712C30.0252 68.8693 31.1722 67.7224 32.574 67.7224C33.9759 67.7224 35.1229 68.8693 35.1229 70.2712V72.82C35.1229 74.2219 33.9759 75.3689 32.574 75.3689ZM32.574 62.6247C31.1722 62.6247 30.0252 61.4777 30.0252 60.0759V57.5271C30.0252 56.1252 31.1722 54.9782 32.574 54.9782C33.9759 54.9782 35.1229 56.1252 35.1229 57.5271V60.0759C35.1229 61.4777 33.9759 62.6247 32.574 62.6247Z" fill="#2B6F7E"/>
<path d="M161.851 111.868C142.683 111.868 127.085 127.467 127.085 146.634C127.085 165.801 142.683 181.375 161.851 181.375C181.018 181.375 196.617 165.776 196.617 146.609C196.617 127.441 181.018 111.868 161.851 111.868Z" fill="white"/>
<path d="M161.851 117.679C158.282 117.679 154.765 118.317 151.451 119.591C150.126 120.101 149.489 121.579 149.999 122.879C150.508 124.204 151.987 124.842 153.287 124.332C156.014 123.287 158.894 122.752 161.851 122.752C175.003 122.752 185.682 133.457 185.682 146.583C185.682 151.604 184.127 156.396 181.222 160.474C180.1 162.054 178.775 163.482 177.271 164.756C176.201 165.674 176.073 167.28 176.991 168.35C177.5 168.936 178.214 169.242 178.928 169.242C179.514 169.242 180.1 169.038 180.585 168.63C182.369 167.101 184 165.368 185.376 163.431C188.919 158.486 190.805 152.675 190.805 146.558C190.78 130.653 177.806 117.679 161.851 117.679Z" fill="#33B4AE"/>
</svg>
