<svg width="261" height="261" viewBox="0 0 261 261" fill="none" xmlns="http://www.w3.org/2000/svg">
<path d="M110.415 208.188C106.796 208.188 103.839 205.232 103.839 201.612C103.839 197.993 106.796 195.036 110.415 195.036C114.035 195.036 116.991 197.993 116.991 201.612C117.017 205.232 114.035 208.188 110.415 208.188Z" fill="#2B6F7E"/>
<path d="M153.057 187.772C153.057 189.072 151.987 190.143 150.687 190.143H70.1438C68.8439 190.143 67.7733 189.072 67.7733 187.772V66.3715C67.7733 65.0716 68.8439 64.0011 70.1438 64.0011H150.661C151.961 64.0011 153.032 65.0716 153.032 66.3715V187.772H153.057Z" fill="#E6E6E6"/>
<path d="M76.9236 90.2795C73.4572 90.2795 70.628 93.1087 70.628 96.5751C70.628 100.041 73.4572 102.871 76.9236 102.871C80.39 102.871 83.2192 100.041 83.2192 96.5751C83.2192 93.1087 80.39 90.2795 76.9236 90.2795ZM204.926 147.271C197.432 147.271 191.315 153.388 191.315 160.882C191.315 168.376 197.432 174.493 204.926 174.493C212.419 174.493 218.537 168.376 218.537 160.882C218.537 153.388 212.419 147.271 204.926 147.271Z" fill="white"/>
<path d="M204.926 142.174C194.603 142.174 186.217 150.559 186.217 160.882C186.217 171.205 194.603 179.59 204.926 179.59C215.249 179.59 223.634 171.205 223.634 160.882C223.634 150.559 215.249 142.174 204.926 142.174ZM191.315 160.882C191.315 153.388 197.432 147.271 204.926 147.271C212.419 147.271 218.537 153.388 218.537 160.882C218.537 168.376 212.419 174.493 204.926 174.493C197.407 174.493 191.315 168.376 191.315 160.882Z" fill="#2B6F7E"/>
<path d="M93.2106 139.166C90.305 139.166 87.96 141.511 87.96 144.417C87.96 147.322 90.305 149.667 93.2106 149.667C96.1163 149.667 98.4612 147.322 98.4612 144.417C98.4612 141.511 96.0908 139.166 93.2106 139.166ZM32.7015 107.382C29.2351 107.382 26.4059 110.211 26.4059 113.678C26.4059 117.144 29.2351 119.973 32.7015 119.973C36.1679 119.973 38.9971 117.144 38.9971 113.678C38.9971 110.211 36.1679 107.382 32.7015 107.382Z" fill="white"/>
<path d="M48.7846 105.674C48.3258 104.349 46.8984 103.635 45.5476 104.069L40.7812 105.674C38.7167 103.584 35.862 102.284 32.676 102.284C26.4059 102.284 21.2827 107.382 21.2827 113.678C21.2827 119.973 26.3804 125.071 32.676 125.071C38.9716 125.071 44.0692 119.973 44.0692 113.678C44.0692 112.454 43.8653 111.256 43.5085 110.16L47.1788 108.937C48.5042 108.453 49.2179 107.025 48.7846 105.674ZM32.7015 119.948C29.2351 119.948 26.4059 117.119 26.4059 113.652C26.4059 110.186 29.2351 107.357 32.7015 107.357C36.1679 107.357 38.9971 110.186 38.9971 113.652C38.9971 117.119 36.1679 119.948 32.7015 119.948ZM83.9584 108.937L83.0663 106.133C86.2014 104.094 88.2914 100.577 88.2914 96.5751C88.2914 90.305 83.1937 85.1818 76.8981 85.1818C70.6025 85.1818 65.5049 90.2795 65.5049 96.5751C65.5049 102.871 70.6025 107.968 76.8981 107.968C77.3569 107.968 77.8157 107.943 78.249 107.892L79.0646 110.492C79.396 111.588 80.4155 112.276 81.486 112.276C81.7409 112.276 81.9958 112.225 82.2507 112.148C83.6525 111.715 84.3917 110.262 83.9584 108.937ZM79.2431 102.412C79.1411 102.437 79.0392 102.488 78.9627 102.514C78.3255 102.743 77.6373 102.871 76.9236 102.871C73.4572 102.871 70.628 100.041 70.628 96.5751C70.628 93.1087 73.4572 90.2795 76.9236 90.2795C80.39 90.2795 83.2192 93.1087 83.2192 96.5751C83.2192 99.2004 81.5625 101.469 79.2431 102.412ZM86.1504 126.83C86.4053 126.83 86.6601 126.779 86.915 126.702C88.2659 126.269 89.0051 124.842 88.5718 123.516L87.0425 118.648C86.6092 117.297 85.1818 116.558 83.8564 116.991C82.5056 117.424 81.7664 118.852 82.1997 120.177L83.729 125.045C84.0603 126.141 85.0544 126.83 86.1504 126.83ZM111.639 128.767L109.6 130.322C108.478 131.163 108.249 132.768 109.115 133.89C109.625 134.553 110.39 134.884 111.154 134.884C111.69 134.884 112.225 134.706 112.684 134.374L114.723 132.819C115.844 131.978 116.074 130.373 115.207 129.251C114.366 128.13 112.76 127.926 111.639 128.767ZM135.496 113.831C134.655 112.709 133.049 112.48 131.927 113.346L129.888 114.901C128.767 115.742 128.537 117.348 129.404 118.47C129.914 119.132 130.678 119.464 131.443 119.464C131.978 119.464 132.514 119.285 132.972 118.954L135.011 117.399C136.133 116.558 136.362 114.952 135.496 113.831ZM121.783 121.044L119.744 122.599C118.622 123.44 118.393 125.045 119.26 126.167C119.769 126.83 120.534 127.161 121.299 127.161C121.834 127.161 122.369 126.983 122.828 126.651L124.867 125.096C125.989 124.255 126.218 122.65 125.351 121.528C124.51 120.432 122.904 120.203 121.783 121.044ZM101.494 136.49L100.577 137.178C98.6906 135.266 96.0908 134.068 93.2106 134.068C92.7773 134.068 92.3695 134.094 91.9617 134.145L91.6813 133.227C91.248 131.876 89.8207 131.137 88.4698 131.57C87.1189 132.004 86.3798 133.431 86.8131 134.782L87.1954 136.031C84.5701 137.917 82.8624 140.976 82.8624 144.442C82.8624 150.151 87.5013 154.79 93.2106 154.79C98.92 154.79 103.559 150.151 103.559 144.442C103.559 143.474 103.431 142.53 103.177 141.638L104.578 140.568C105.7 139.727 105.929 138.121 105.063 136.999C104.222 135.853 102.616 135.623 101.494 136.49ZM87.9601 144.417C87.9601 141.511 90.305 139.166 93.2106 139.166C96.1163 139.166 98.4612 141.511 98.4612 144.417C98.4612 147.322 96.1163 149.667 93.2106 149.667C90.305 149.667 87.9601 147.322 87.9601 144.417Z" fill="#2B6F7E"/>
<path d="M220.168 105.725H169.981V54.7488C169.981 44.0947 161.315 35.4287 150.661 35.4287H70.1438C59.4897 35.4287 50.8236 44.0947 50.8236 54.7488V203.957C50.8236 214.611 59.4897 223.277 70.1438 223.277H220.142C230.796 223.277 239.462 214.713 239.462 204.187V124.842C239.488 114.289 230.822 105.725 220.168 105.725ZM150.687 213.082H70.1438C65.1226 213.082 61.019 209.004 61.019 203.957V104.247L61.6562 104.043C62.9816 103.584 63.6952 102.157 63.2619 100.806C62.9306 99.8121 62.013 99.1494 61.0444 99.073V54.7743C61.0444 49.7531 65.1226 45.6495 70.1692 45.6495H150.687C155.708 45.6495 159.812 49.7276 159.812 54.7743V110.874C159.327 110.925 158.817 111.129 158.41 111.46C157.339 112.378 157.212 113.984 158.129 115.054L159.786 116.991L159.812 117.017V203.983C159.786 209.004 155.708 213.082 150.687 213.082ZM229.293 204.187C229.293 209.106 225.214 213.082 220.168 213.082H167.713C169.166 210.355 170.007 207.271 170.007 203.957V127.569C170.593 127.569 171.179 127.365 171.638 126.957C172.709 126.04 172.836 124.434 171.918 123.363L170.262 121.426C170.185 121.324 170.083 121.248 169.981 121.146V115.921H220.168C225.189 115.921 229.293 119.922 229.293 124.816V204.187Z" fill="#2B6F7E"/>
<path d="M186.804 140.823C185.886 139.752 184.28 139.625 183.21 140.542C182.139 141.46 182.012 143.066 182.929 144.136L184.586 146.073C185.096 146.66 185.81 146.965 186.523 146.965C187.109 146.965 187.696 146.762 188.18 146.354C189.25 145.436 189.378 143.83 188.46 142.76L186.804 140.823ZM178.52 131.137C177.602 130.067 175.997 129.939 174.926 130.857C173.856 131.774 173.728 133.38 174.646 134.451L176.302 136.388C176.812 136.974 177.526 137.28 178.24 137.28C178.826 137.28 179.412 137.076 179.896 136.668C180.967 135.751 181.094 134.145 180.177 133.074L178.52 131.137Z" fill="#2B6F7E"/>
<path d="M125.836 56.8389H94.9948C93.593 56.8389 92.446 55.6919 92.446 54.29C92.446 52.8882 93.593 51.7412 94.9948 51.7412H125.836C127.237 51.7412 128.384 52.8882 128.384 54.29C128.384 55.6919 127.237 56.8389 125.836 56.8389Z" fill="#33B4AE"/>
<path d="M152.242 81.588C143.677 81.588 136.719 88.5463 136.719 97.1103C136.719 105.674 143.677 112.633 152.242 112.633C160.806 112.633 167.764 105.674 167.764 97.1103C167.764 88.5463 160.806 81.588 152.242 81.588Z" fill="white"/>
<path d="M152.241 76.4903C140.874 76.4903 131.621 85.7426 131.621 97.1103C131.621 108.478 140.874 117.73 152.241 117.73C163.609 117.73 172.862 108.478 172.862 97.1103C172.862 85.7426 163.609 76.4903 152.241 76.4903ZM136.745 97.1103C136.745 88.5463 143.703 81.588 152.267 81.588C160.831 81.588 167.789 88.5463 167.789 97.1103C167.789 105.674 160.831 112.633 152.267 112.633C143.703 112.633 136.745 105.674 136.745 97.1103Z" fill="#2B6F7E"/>
</svg>
