<svg width="289" height="289" viewBox="0 0 289 289" fill="none" xmlns="http://www.w3.org/2000/svg">
<path d="M241.219 233.712H47.9503C36.9717 233.712 28.0533 224.793 28.0533 213.815V72.9838C28.0533 62.0052 36.9717 53.0868 47.9503 53.0868H241.191C252.169 53.0868 261.088 62.0052 261.088 72.9838V213.815C261.116 224.793 252.198 233.712 241.219 233.712Z" fill="white"/>
<path d="M249.827 72.8427C249.827 68.1859 246.017 64.3759 241.36 64.3759H47.8092C43.1524 64.3759 39.3424 68.1859 39.3424 72.8427V106.738H249.799V72.8427H249.827ZM66.4644 99.9647C58.5056 99.9647 52.0144 93.4734 52.0144 85.5147C52.0144 77.5559 58.5056 71.0647 66.4644 71.0647C74.4231 71.0647 80.9144 77.5559 80.9144 85.5147C80.9144 93.4734 74.4514 99.9647 66.4644 99.9647ZM145.996 98.0455H105.75C98.9486 98.0455 93.417 92.5139 93.417 85.7122C93.417 78.9106 98.9486 73.3789 105.75 73.3789H145.996C152.797 73.3789 158.329 78.9106 158.329 85.7122C158.329 92.5139 152.797 98.0455 145.996 98.0455Z" fill="#E6E6E6"/>
<path d="M60.1989 212.46H144.528C146.08 212.46 147.35 211.19 147.35 209.638C147.35 208.086 146.08 206.816 144.528 206.816H60.1989C57.8 206.816 55.8526 204.868 55.8526 202.469V148.056C55.8526 146.504 54.5826 145.234 53.0304 145.234C51.4781 145.234 50.2081 146.504 50.2081 148.056V202.498C50.2363 207.973 54.6955 212.46 60.1989 212.46Z" fill="#33B4AE"/>
<path d="M66.4644 76.7092C61.6101 76.7092 57.6589 80.6603 57.6589 85.5146C57.6589 90.3689 61.6101 94.3201 66.4644 94.3201C71.3187 94.3201 75.2698 90.3689 75.2698 85.5146C75.2698 80.6603 71.3187 76.7092 66.4644 76.7092Z" fill="white"/>
<path d="M66.4644 71.0647C58.5056 71.0647 52.0144 77.5559 52.0144 85.5147C52.0144 93.4734 58.5056 99.9647 66.4644 99.9647C74.4231 99.9647 80.9144 93.4734 80.9144 85.5147C80.9144 77.5559 74.4514 71.0647 66.4644 71.0647ZM66.4644 94.3201C61.6101 94.3201 57.6589 90.3689 57.6589 85.5147C57.6589 80.6604 61.6101 76.7092 66.4644 76.7092C71.3187 76.7092 75.2698 80.6604 75.2698 85.5147C75.2698 90.3689 71.3187 94.3201 66.4644 94.3201Z" fill="#2B6F7E"/>
<path d="M145.996 79.0517H105.75C102.081 79.0517 99.0615 82.0433 99.0615 85.7404C99.0615 89.4376 102.053 92.4292 105.75 92.4292H145.996C149.665 92.4292 152.685 89.4376 152.685 85.7404C152.685 82.0433 149.665 79.0517 145.996 79.0517Z" fill="white"/>
<path d="M145.996 73.4071H105.75C98.9486 73.4071 93.417 78.9388 93.417 85.7404C93.417 92.5421 98.9486 98.0737 105.75 98.0737H145.996C152.797 98.0737 158.329 92.5421 158.329 85.7404C158.329 78.9388 152.797 73.4071 145.996 73.4071ZM145.996 92.401H105.75C102.081 92.401 99.0615 89.4094 99.0615 85.7122C99.0615 82.015 102.053 79.0234 105.75 79.0234H145.996C149.665 79.0234 152.685 82.015 152.685 85.7122C152.685 89.4094 149.665 92.401 145.996 92.401Z" fill="#2B6F7E"/>
<path d="M241.36 53.0868H47.8092C36.9152 53.0868 28.0533 61.9487 28.0533 72.8427V213.956C28.0533 224.85 36.9152 233.712 47.8092 233.712H241.332C252.226 233.712 261.088 224.85 261.088 213.956V72.8427C261.116 61.9487 252.254 53.0868 241.36 53.0868ZM249.827 213.956C249.827 218.613 246.017 222.423 241.36 222.423H47.8092C43.1524 222.423 39.3424 218.613 39.3424 213.956V112.383H249.799V213.956H249.827ZM249.827 106.738H39.3706V72.8427C39.3706 68.1859 43.1807 64.3759 47.8374 64.3759H241.36C246.017 64.3759 249.827 68.1859 249.827 72.8427V106.738Z" fill="#2B6F7E"/>
<path d="M129.796 176.279L97.5375 163.494L129.796 151.161V138.037L83.5673 158.047V169.195L129.796 189.289V176.279ZM160.502 128.357H150.794L134.086 198.123H143.625L160.502 128.357ZM211.077 158.132L164.792 138.122V151.048L197.079 163.607L164.792 176.307V189.346L211.077 169.195V158.132Z" fill="#2B6F7E"/>
</svg>
