<svg width="238" height="237" viewBox="0 0 238 237" fill="none" xmlns="http://www.w3.org/2000/svg">
<path d="M138.221 185.249H63.3116C60.8248 185.249 58.8027 187.262 58.8027 189.739C58.8027 192.215 60.8248 194.229 63.3116 194.229H138.221C140.708 194.229 142.73 192.215 142.73 189.739C142.73 187.239 140.708 185.249 138.221 185.249Z" fill="#26323B"/>
<path d="M212.178 178.537V187.563H224.984C223.102 182.31 218.082 178.537 212.178 178.537Z" fill="#2B6F7E"/>
<path d="M189.563 156.434V54.4359C189.563 50.7097 186.519 47.701 182.8 47.701H18.7332C14.9912 47.701 11.9697 50.7328 11.9697 54.4359V156.434C11.9697 160.16 15.0144 163.169 18.7332 163.169H182.8C186.542 163.192 189.563 160.16 189.563 156.434ZM179.36 146.713C179.36 150.416 176.315 153.448 172.596 153.448H28.9597C25.241 153.448 22.1963 150.416 22.1963 146.713V64.1799C22.1963 60.4768 25.241 57.4447 28.9597 57.4447H172.596C176.315 57.4447 179.36 60.4768 179.36 64.1799V146.713Z" fill="white"/>
<path d="M172.596 57.4446H28.9597C25.241 57.4446 22.1963 60.4768 22.1963 64.1799V146.713C22.1963 150.416 25.241 153.448 28.9597 153.448H172.596C176.315 153.448 179.36 150.416 179.36 146.713V64.1799C179.36 60.4768 176.315 57.4446 172.596 57.4446ZM50.9701 64.8971C50.9701 64.5268 51.2723 64.2492 51.621 64.2492H65.8683C66.2402 64.2492 66.5192 64.5502 66.5192 64.8971V68.9474C66.5192 69.3177 66.2169 69.5956 65.8683 69.5956H51.621C51.2491 69.5956 50.9701 69.2946 50.9701 68.9474V64.8971ZM43.9277 64.0872C45.4616 64.0872 46.6935 65.3139 46.6935 66.8414C46.6935 68.3689 45.4616 69.5956 43.9277 69.5956C42.3937 69.5956 41.1618 68.3689 41.1618 66.8414C41.1618 65.3139 42.4169 64.0872 43.9277 64.0872ZM34.8634 64.0872C36.3973 64.0872 37.629 65.3139 37.629 66.8414C37.629 68.3689 36.3973 69.5956 34.8634 69.5956C33.3292 69.5956 32.0976 68.3689 32.0976 66.8414C32.0976 65.3139 33.3292 64.0872 34.8634 64.0872ZM90.0169 106.141C90.0169 121.833 77.1873 134.609 61.429 134.609C45.671 134.609 32.8413 121.833 32.8413 106.141C32.8413 90.449 45.671 77.6732 61.429 77.6732H63.6834V103.896H90.0169V106.141ZM69.0759 97.1839V75.2662C81.2315 75.2662 91.0862 85.0791 91.0862 97.1839H69.0759ZM155.908 131.646H123.207C121.952 131.646 120.952 130.651 120.952 129.401C120.952 128.151 121.952 127.156 123.207 127.156H155.908C157.164 127.156 158.163 128.151 158.163 129.401C158.163 130.628 157.164 131.646 155.908 131.646ZM155.908 114.681H122.068C120.813 114.681 119.813 113.686 119.813 112.436C119.813 111.186 120.813 110.191 122.068 110.191H155.908C157.164 110.191 158.163 111.186 158.163 112.436C158.163 113.686 157.164 114.681 155.908 114.681ZM155.908 97.6932H107.193C105.938 97.6932 104.938 96.6978 104.938 95.4479C104.938 94.1983 105.938 93.2029 107.193 93.2029H155.932C157.187 93.2029 158.186 94.1983 158.186 95.4479C158.186 96.6978 157.164 97.6932 155.908 97.6932ZM155.908 80.7281H107.193C105.938 80.7281 104.938 79.733 104.938 78.4831C104.938 77.2333 105.938 76.2381 107.193 76.2381H155.932C157.187 76.2381 158.186 77.2333 158.186 78.4831C158.186 79.733 157.164 80.7281 155.908 80.7281Z" fill="#2B6F7E"/>
<path d="M59.1746 82.2787C46.9495 83.413 37.3503 93.6891 37.3503 106.141C37.3503 119.356 48.1579 130.119 61.4291 130.119C73.9336 130.119 84.253 120.56 85.3918 108.386H59.1746V82.2787Z" fill="white"/>
<path d="M63.6834 77.6732H61.429C45.671 77.6732 32.8413 90.4487 32.8413 106.141C32.8413 121.833 45.671 134.609 61.429 134.609C77.1873 134.609 90.0169 121.833 90.0169 106.141V103.896H63.6834V77.6732ZM85.3917 108.409C84.2529 120.583 73.9335 130.142 61.429 130.142C48.1578 130.142 37.3502 119.38 37.3502 106.164C37.3502 93.7122 46.9494 83.4362 59.1745 82.3018V108.409H85.3917Z" fill="#26323B"/>
<path d="M69.0759 75.2659V97.1839H91.0862C91.0862 85.0792 81.2315 75.2659 69.0759 75.2659Z" fill="#26323B"/>
<path d="M32.0977 66.8414C32.0977 67.5719 32.3889 68.2723 32.9077 68.7889C33.4263 69.3053 34.1299 69.5956 34.8632 69.5956C35.5969 69.5956 36.3004 69.3053 36.819 68.7889C37.3378 68.2723 37.6291 67.5719 37.6291 66.8414C37.6291 66.1108 37.3378 65.4105 36.819 64.8938C36.3004 64.3775 35.5969 64.0872 34.8632 64.0872C34.1299 64.0872 33.4263 64.3775 32.9077 64.8938C32.3889 65.4105 32.0977 66.1108 32.0977 66.8414Z" fill="white"/>
<path d="M41.1619 66.8414C41.1619 67.5719 41.4534 68.2723 41.972 68.7889C42.4908 69.3053 43.1944 69.5956 43.9277 69.5956C44.6614 69.5956 45.3649 69.3053 45.8835 68.7889C46.4023 68.2723 46.6936 67.5719 46.6936 66.8414C46.6936 66.1108 46.4023 65.4105 45.8835 64.8938C45.3649 64.3775 44.6614 64.0872 43.9277 64.0872C43.1944 64.0872 42.4908 64.3775 41.972 64.8938C41.4534 65.4105 41.1619 66.1108 41.1619 66.8414Z" fill="white"/>
<path d="M51.6209 69.5956H65.8682C66.2401 69.5956 66.5191 69.2946 66.5191 68.9474V64.8971C66.5191 64.5268 66.2168 64.2492 65.8682 64.2492H51.6209C51.249 64.2492 50.97 64.5502 50.97 64.8971V68.9474C50.97 69.3177 51.2722 69.5956 51.6209 69.5956Z" fill="white"/>
<path d="M212.178 169.534C201.254 169.534 192.12 177.287 190.028 187.54H163.137C160.418 187.54 158.442 187.008 157.745 186.082C157.28 185.457 157.28 184.462 157.28 183.999V172.172H182.823C191.539 172.172 198.604 165.113 198.604 156.457V54.4359C198.604 45.7567 191.516 38.7208 182.823 38.7208H18.7331C10.0173 38.7208 2.95166 45.7798 2.95166 54.4359V156.434C2.95166 165.113 10.0405 172.149 18.7331 172.149H148.239V183.999C148.239 185.11 148.239 188.466 150.54 191.498C153.073 194.831 157.303 196.52 163.137 196.52H234.769V192.03C234.769 179.625 224.636 169.534 212.178 169.534ZM18.7331 163.192C14.9911 163.192 11.9696 160.16 11.9696 156.457V54.4359C11.9696 50.7097 15.0144 47.701 18.7331 47.701H182.8C186.542 47.701 189.563 50.7328 189.563 54.4359V156.434C189.563 160.16 186.518 163.169 182.8 163.169H18.7331V163.192ZM212.178 187.54H199.371C201.231 182.286 206.274 178.514 212.178 178.514C218.081 178.514 223.125 182.286 224.984 187.54H212.178Z" fill="#26323B"/>
<path d="M155.909 76.2382H107.193C105.938 76.2382 104.938 77.2333 104.938 78.4831C104.938 79.733 105.938 80.7281 107.193 80.7281H155.932C157.187 80.7281 158.187 79.733 158.187 78.4831C158.187 77.2333 157.164 76.2382 155.909 76.2382Z" fill="#26323B"/>
<path d="M155.909 93.2029H107.193C105.938 93.2029 104.938 94.1983 104.938 95.4479C104.938 96.6978 105.938 97.6932 107.193 97.6932H155.932C157.187 97.6932 158.187 96.6978 158.187 95.4479C158.187 94.1983 157.164 93.2029 155.909 93.2029ZM155.909 110.191H122.068C120.813 110.191 119.813 111.186 119.813 112.436C119.813 113.686 120.813 114.681 122.068 114.681H155.909C157.164 114.681 158.163 113.686 158.163 112.436C158.163 111.186 157.164 110.191 155.909 110.191Z" fill="#59E1A5"/>
<path d="M155.908 127.156H123.207C121.952 127.156 120.952 128.151 120.952 129.401C120.952 130.651 121.952 131.646 123.207 131.646H155.908C157.164 131.646 158.163 130.651 158.163 129.401C158.163 128.151 157.164 127.156 155.908 127.156Z" fill="#26323B"/>
</svg>
