<svg width="269" height="270" viewBox="0 0 269 270" fill="none" xmlns="http://www.w3.org/2000/svg">
<path d="M71.3967 135C71.3967 151.798 78.0454 167.909 89.8793 179.786C101.714 191.665 117.764 198.338 134.5 198.338C151.236 198.338 167.286 191.665 179.121 179.786C190.955 167.909 197.603 151.798 197.603 135C197.603 118.202 190.955 102.091 179.121 90.2135C167.286 78.3352 151.236 71.6622 134.5 71.6622C117.764 71.6622 101.714 78.3352 89.8793 90.2135C78.0454 102.091 71.3967 118.202 71.3967 135Z" fill="#2B6F7E"/>
<path d="M134.973 230.687C133.528 230.687 132.346 229.526 132.346 228.076C132.346 226.626 133.502 225.44 134.947 225.413C135.787 225.413 136.654 225.387 137.495 225.36C138.94 225.308 140.148 226.442 140.201 227.918C140.253 229.368 139.124 230.581 137.652 230.634C136.812 230.66 135.892 230.687 134.973 230.687C134.999 230.687 134.999 230.687 134.973 230.687ZM124.491 230.185C124.413 230.185 124.307 230.185 124.202 230.159L121.523 229.843C120.078 229.658 119.08 228.313 119.264 226.89C119.448 225.44 120.787 224.438 122.206 224.622C123.046 224.727 123.887 224.833 124.728 224.912C126.173 225.07 127.223 226.362 127.066 227.812C126.961 229.183 125.831 230.185 124.491 230.185ZM148.055 229.711C146.768 229.711 145.638 228.762 145.454 227.443C145.244 225.993 146.243 224.675 147.687 224.464L150.209 224.068C151.628 223.831 152.994 224.78 153.256 226.204C153.519 227.628 152.547 228.999 151.129 229.263C150.236 229.421 149.342 229.553 148.449 229.685C148.318 229.711 148.186 229.711 148.055 229.711ZM111.593 227.891C111.383 227.891 111.173 227.865 110.963 227.812C110.096 227.602 109.229 227.364 108.362 227.127C106.97 226.731 106.155 225.281 106.549 223.884C106.943 222.486 108.388 221.669 109.78 222.065C110.595 222.302 111.435 222.513 112.25 222.724C113.668 223.066 114.509 224.516 114.167 225.914C113.826 227.101 112.749 227.891 111.593 227.891ZM160.875 226.89C159.745 226.89 158.694 226.151 158.353 224.991C157.932 223.594 158.747 222.117 160.139 221.722C160.954 221.484 161.768 221.221 162.582 220.957C163.974 220.509 165.445 221.273 165.892 222.645C166.339 224.042 165.577 225.519 164.211 225.967C163.37 226.257 162.477 226.521 161.636 226.758C161.374 226.863 161.137 226.89 160.875 226.89ZM99.0886 223.805C98.7473 223.805 98.4319 223.752 98.0906 223.62C97.25 223.277 96.4093 222.935 95.5949 222.565C94.255 221.985 93.6511 220.43 94.255 219.085C94.833 217.74 96.3831 217.134 97.7227 217.74C98.5109 218.083 99.2987 218.426 100.087 218.742C101.427 219.296 102.084 220.825 101.532 222.17C101.111 223.198 100.139 223.805 99.0886 223.805ZM173.195 222.328C172.197 222.328 171.251 221.748 170.805 220.773C170.2 219.454 170.778 217.872 172.118 217.292C172.88 216.949 173.668 216.58 174.43 216.211C175.743 215.578 177.319 216.105 177.95 217.424C178.58 218.742 178.055 220.324 176.741 220.957C175.927 221.352 175.113 221.748 174.298 222.117C173.904 222.249 173.537 222.328 173.195 222.328ZM87.2936 218.004C86.8471 218.004 86.4005 217.898 85.9802 217.635C85.2183 217.187 84.4304 216.712 83.6685 216.237C82.4338 215.472 82.0397 213.838 82.8279 212.599C83.5898 211.359 85.2183 210.964 86.453 211.755C87.1887 212.203 87.9241 212.651 88.6336 213.073C89.8945 213.812 90.3148 215.42 89.5791 216.685C89.0801 217.556 88.2133 218.004 87.2936 218.004ZM184.727 216.053C183.861 216.053 183.02 215.631 182.494 214.84C181.707 213.601 182.074 211.992 183.309 211.201C184.018 210.753 184.727 210.278 185.437 209.804C185.723 209.609 186.044 209.473 186.383 209.404C186.721 209.334 187.07 209.332 187.41 209.398C187.749 209.464 188.072 209.597 188.36 209.789C188.648 209.981 188.896 210.228 189.088 210.516C189.282 210.803 189.418 211.126 189.487 211.465C189.556 211.805 189.558 212.156 189.492 212.496C189.426 212.837 189.294 213.161 189.103 213.45C188.912 213.739 188.666 213.987 188.379 214.181C187.643 214.682 186.881 215.183 186.12 215.657C185.673 215.921 185.2 216.053 184.727 216.053ZM76.4445 210.621C75.8665 210.621 75.3147 210.437 74.8157 210.067C74.1066 209.514 73.3971 208.933 72.7141 208.354C71.6109 207.431 71.4532 205.769 72.3725 204.636C73.2922 203.528 74.9472 203.37 76.0766 204.293C76.7333 204.847 77.39 205.374 78.073 205.901C79.2028 206.798 79.4129 208.459 78.5198 209.593C77.9943 210.278 77.2061 210.621 76.4445 210.621ZM195.261 208.248C194.526 208.248 193.79 207.932 193.265 207.325C192.319 206.218 192.451 204.557 193.554 203.607C194.211 203.054 194.841 202.5 195.472 201.92C196.549 200.944 198.204 201.023 199.176 202.104C200.147 203.185 200.069 204.847 198.992 205.822C198.335 206.429 197.652 207.035 196.969 207.615C196.47 208.037 195.866 208.248 195.261 208.248ZM66.6983 201.788C66.0154 201.788 65.3324 201.524 64.8069 200.971C64.1764 200.338 63.5722 199.652 62.9683 198.993C61.9962 197.912 62.0749 196.251 63.1519 195.275C64.2292 194.3 65.8839 194.379 66.856 195.46C67.434 196.093 68.012 196.726 68.5897 197.332C69.588 198.387 69.5618 200.048 68.511 201.05C68.012 201.551 67.355 201.788 66.6983 201.788ZM204.64 199.046C204.009 199.046 203.405 198.835 202.906 198.387C201.829 197.411 201.724 195.75 202.696 194.669C203.247 194.036 203.825 193.377 204.377 192.718C205.323 191.61 206.978 191.452 208.081 192.401C209.184 193.351 209.342 195.012 208.396 196.119C207.818 196.805 207.214 197.49 206.636 198.176C206.085 198.729 205.375 199.046 204.64 199.046ZM58.292 191.69C57.4776 191.69 56.6898 191.32 56.1643 190.609C55.639 189.87 55.1135 189.132 54.6145 188.394C53.8001 187.181 54.0889 185.546 55.2974 184.729C56.5059 183.911 58.1347 184.201 58.9487 185.414C59.4218 186.126 59.9208 186.812 60.4198 187.497C61.2605 188.683 60.9978 190.318 59.8422 191.188C59.3691 191.531 58.8176 191.69 58.292 191.69ZM212.678 188.604C212.179 188.604 211.68 188.473 211.233 188.156C210.025 187.339 209.71 185.704 210.498 184.491C210.971 183.779 211.443 183.067 211.89 182.329C212.652 181.09 214.281 180.721 215.515 181.485C216.75 182.25 217.118 183.885 216.356 185.124C215.883 185.889 215.384 186.653 214.885 187.391C214.359 188.209 213.519 188.604 212.678 188.604ZM51.3307 180.536C50.3851 180.536 49.4917 180.035 49.0189 179.139C48.5986 178.348 48.1783 177.53 47.7842 176.739C47.1275 175.447 47.6793 173.865 48.9665 173.206C50.2799 172.547 51.83 173.101 52.4867 174.393C52.8542 175.157 53.2483 175.922 53.6424 176.66C54.3253 177.952 53.8263 179.534 52.5654 180.22C52.1713 180.431 51.751 180.536 51.3307 180.536ZM219.167 177.161C218.773 177.161 218.405 177.082 218.037 176.898C216.724 176.265 216.172 174.683 216.803 173.391C217.17 172.626 217.538 171.835 217.88 171.07C218.484 169.752 220.034 169.146 221.347 169.726C222.66 170.332 223.265 171.888 222.687 173.206C222.319 174.023 221.951 174.867 221.557 175.658C221.084 176.607 220.139 177.161 219.167 177.161ZM46.0243 168.486C44.9473 168.486 43.949 167.827 43.5549 166.746C43.2398 165.903 42.9506 165.032 42.6618 164.188C42.2153 162.817 42.9506 161.315 44.3431 160.866C45.7089 160.418 47.2066 161.156 47.6531 162.554C47.9157 163.371 48.2045 164.188 48.4937 164.979C48.9927 166.351 48.2836 167.854 46.9174 168.354C46.6285 168.46 46.3131 168.486 46.0243 168.486ZM224 164.9C223.738 164.9 223.475 164.848 223.212 164.769C221.82 164.32 221.058 162.844 221.505 161.446C221.767 160.629 222.004 159.812 222.24 158.994C222.634 157.597 224.105 156.779 225.498 157.175C226.89 157.57 227.704 159.047 227.31 160.444C227.074 161.315 226.811 162.185 226.522 163.028C226.154 164.188 225.13 164.9 224 164.9ZM42.4254 155.83C41.2169 155.83 40.1137 154.986 39.8511 153.747C39.6672 152.877 39.4832 151.98 39.3255 151.084C39.0629 149.66 40.0085 148.289 41.4533 148.025C42.872 147.762 44.2378 148.711 44.5007 150.161C44.6581 151.005 44.8158 151.849 44.9997 152.666C45.2886 154.09 44.3955 155.487 42.9769 155.777C42.7933 155.804 42.6093 155.83 42.4254 155.83ZM227.074 152.112C226.943 152.112 226.785 152.112 226.627 152.086C225.209 151.849 224.237 150.477 224.473 149.054L224.867 146.523C225.077 145.072 226.391 144.07 227.836 144.281C229.281 144.492 230.279 145.81 230.069 147.261C229.937 148.157 229.806 149.054 229.648 149.95C229.464 151.19 228.335 152.112 227.074 152.112ZM40.6389 142.778C39.2731 142.778 38.117 141.724 38.0121 140.326C37.9597 139.43 37.9069 138.507 37.8807 137.61C37.8282 136.16 38.9577 134.921 40.4025 134.868C41.8474 134.815 43.0821 135.949 43.1346 137.399C43.1608 138.243 43.2136 139.113 43.266 139.957C43.371 141.407 42.2677 142.673 40.8228 142.752C40.7442 142.778 40.6917 142.778 40.6389 142.778ZM228.361 139.008H228.282C226.837 138.955 225.682 137.769 225.734 136.292C225.76 135.448 225.76 134.578 225.76 133.734C225.76 132.284 226.943 131.098 228.387 131.098C229.832 131.098 231.014 132.284 231.014 133.734C231.014 134.631 231.014 135.554 230.988 136.45C230.936 137.874 229.78 139.008 228.361 139.008ZM40.6651 129.621H40.4816C39.0367 129.516 37.9331 128.25 38.0384 126.8C38.0908 125.903 38.1698 125.007 38.2747 124.11C38.4062 122.66 39.6934 121.605 41.1383 121.737C42.5831 121.869 43.6339 123.161 43.5024 124.611C43.4237 125.455 43.3447 126.325 43.2923 127.169C43.187 128.566 42.0313 129.621 40.6651 129.621ZM227.836 126.193C226.522 126.193 225.366 125.191 225.235 123.847C225.156 123.003 225.051 122.159 224.92 121.315C224.736 119.865 225.734 118.547 227.179 118.336C228.624 118.151 229.937 119.153 230.147 120.604C230.279 121.5 230.384 122.396 230.463 123.293C230.62 124.743 229.569 126.035 228.125 126.193H227.836ZM42.5041 116.569C42.3202 116.569 42.1362 116.543 41.9526 116.516C40.534 116.2 39.6409 114.803 39.9298 113.379C40.1137 112.482 40.3239 111.612 40.534 110.742C40.8753 109.318 42.2939 108.448 43.7126 108.791C45.1312 109.134 45.9981 110.558 45.6564 111.981C45.4463 112.799 45.2624 113.643 45.0784 114.486C44.7896 115.726 43.7126 116.569 42.5041 116.569ZM225.524 113.221C224.342 113.221 223.291 112.43 222.976 111.217C222.766 110.399 222.556 109.556 222.319 108.738C221.925 107.341 222.739 105.891 224.132 105.495C225.524 105.1 226.969 105.917 227.363 107.315L228.072 109.925C228.44 111.349 227.573 112.773 226.154 113.115C225.971 113.194 225.76 113.221 225.524 113.221ZM46.1292 103.913C45.8404 103.913 45.5253 103.86 45.2361 103.755C43.8703 103.254 43.187 101.751 43.6864 100.38C44.0014 99.5362 44.3168 98.6924 44.6581 97.8487C45.1837 96.5037 46.7334 95.8446 48.0734 96.3721C49.413 96.8993 50.0697 98.4552 49.5445 99.7998C49.2291 100.591 48.914 101.408 48.6249 102.199C48.2045 103.254 47.2066 103.913 46.1292 103.913ZM221.452 100.723C220.428 100.723 219.429 100.116 219.009 99.088C218.694 98.2969 218.352 97.5058 218.011 96.7413C217.433 95.3964 218.037 93.8409 219.351 93.2607C220.69 92.6805 222.24 93.287 222.818 94.6053C223.186 95.4227 223.528 96.2665 223.869 97.0839C224.421 98.4289 223.764 99.9844 222.424 100.512C222.109 100.644 221.767 100.723 221.452 100.723ZM51.5146 91.8898C51.0943 91.8898 50.674 91.7841 50.2799 91.5732C48.9927 90.8877 48.5199 89.2792 49.2029 88.0136C49.6232 87.2225 50.0697 86.4054 50.5163 85.6406C51.2257 84.375 52.8542 83.9268 54.0889 84.6649C55.3499 85.377 55.7964 87.0116 55.061 88.2509C54.6407 88.9893 54.2204 89.7537 53.8263 90.4922C53.3535 91.3886 52.4339 91.8898 51.5146 91.8898ZM215.647 88.91C214.754 88.91 213.86 88.4355 213.387 87.5917C212.967 86.8536 212.521 86.1152 212.074 85.4034C211.312 84.1641 211.68 82.5292 212.915 81.7648C214.149 81 215.778 81.3692 216.54 82.6085C217.013 83.373 217.486 84.1378 217.932 84.9289C218.667 86.1945 218.247 87.8027 216.986 88.5411C216.566 88.8047 216.093 88.91 215.647 88.91ZM58.5022 80.7364C57.977 80.7364 57.4252 80.5781 56.9524 80.2352C55.7702 79.3652 55.5338 77.7303 56.3744 76.544C56.9 75.8055 57.4514 75.0938 58.0032 74.382C58.8963 73.2216 60.5513 73.0107 61.6808 73.9071C62.8368 74.8038 63.047 76.4647 62.1539 77.5987C61.6283 78.2578 61.1293 78.9433 60.63 79.6554C60.1048 80.3672 59.3166 80.7364 58.5022 80.7364ZM208.265 78.0206C207.477 78.0206 206.715 77.6777 206.19 77.0185C205.664 76.3594 205.139 75.6739 204.587 75.0411C203.668 73.9334 203.799 72.2726 204.929 71.3232C206.032 70.4005 207.687 70.5321 208.633 71.6661C209.21 72.3516 209.788 73.0634 210.34 73.7755C211.233 74.9091 211.049 76.5703 209.894 77.4667C209.421 77.8359 208.843 78.0206 208.265 78.0206ZM66.9612 70.6641C66.3042 70.6641 65.6475 70.4268 65.1223 69.926C64.0715 68.9239 64.0453 67.2364 65.0698 66.2081C65.7003 65.5752 66.3308 64.9161 66.9875 64.2833C68.0382 63.2549 69.6933 63.2813 70.6913 64.3359C71.7158 65.3906 71.6896 67.0518 70.6388 68.0539L68.8261 69.873C68.3271 70.4005 67.6442 70.6641 66.9612 70.6641ZM199.438 68.2911C198.782 68.2911 198.125 68.0539 197.626 67.5527C197.021 66.9728 196.391 66.3663 195.76 65.8125C194.683 64.8368 194.605 63.1756 195.577 62.0946C196.549 61.0136 198.204 60.9346 199.281 61.91C199.937 62.5165 200.621 63.1493 201.251 63.7558C202.302 64.7578 202.328 66.4453 201.33 67.4737C200.831 68.0009 200.148 68.2911 199.438 68.2911ZM76.7333 61.8837C75.9452 61.8837 75.1836 61.5411 74.658 60.8553C73.7649 59.6953 73.9751 58.0605 75.1045 57.1641C75.814 56.6102 76.5232 56.0567 77.2589 55.5292C78.4408 54.6591 80.0696 54.9227 80.9365 56.0831C81.8033 57.2694 81.5407 58.9042 80.3847 59.7743C79.7018 60.2755 79.0188 60.8027 78.3621 61.3302C77.8628 61.6991 77.2851 61.8837 76.7333 61.8837ZM189.377 59.8536C188.852 59.8536 188.3 59.6953 187.854 59.3524C187.171 58.8516 186.461 58.3507 185.752 57.8759C184.543 57.0584 184.255 55.4239 185.069 54.2109C185.883 52.998 187.512 52.7081 188.72 53.5255C189.456 54.0263 190.218 54.5538 190.927 55.081C192.109 55.9248 192.372 57.586 191.531 58.7726C190.98 59.4581 190.191 59.8536 189.377 59.8536ZM87.609 54.5272C86.6894 54.5272 85.8225 54.0527 85.3235 53.2089C84.5878 51.9433 85.0347 50.3351 86.2956 49.5966C87.0834 49.1484 87.8716 48.7002 88.6598 48.2784C89.947 47.5929 91.523 48.0674 92.2062 49.3594C92.8891 50.6513 92.4164 52.2335 91.1292 52.919C90.3935 53.3145 89.6316 53.7364 88.8962 54.1583C88.5021 54.4219 88.0555 54.5272 87.609 54.5272ZM178.213 52.8927C177.792 52.8927 177.372 52.787 176.978 52.5761C176.216 52.1805 175.454 51.785 174.692 51.4161C173.379 50.7833 172.854 49.2011 173.484 47.8828C174.115 46.5645 175.691 46.037 177.004 46.6698C177.818 47.0654 178.607 47.4873 179.421 47.9091C180.708 48.5946 181.207 50.1768 180.524 51.4688C180.078 52.3915 179.158 52.8927 178.213 52.8927ZM99.404 48.8055C98.3532 48.8055 97.3811 48.1727 96.9608 47.1444C96.4093 45.7998 97.066 44.2706 98.4319 43.7167C99.2725 43.3742 100.113 43.0576 100.954 42.7413C102.32 42.2402 103.817 42.9256 104.316 44.2969C104.816 45.6678 104.132 47.171 102.766 47.6719C101.978 47.9618 101.164 48.2784 100.376 48.5946C100.061 48.7266 99.7456 48.8055 99.404 48.8055ZM166.207 47.5662C165.918 47.5662 165.603 47.5136 165.314 47.4083C164.5 47.118 163.686 46.8281 162.897 46.5645C161.532 46.1163 160.77 44.6131 161.216 43.2422C161.663 41.8709 163.16 41.1065 164.526 41.5547C165.367 41.8446 166.234 42.1349 167.101 42.4511C168.467 42.9523 169.176 44.4552 168.677 45.8261C168.283 46.9071 167.284 47.5662 166.207 47.5662ZM111.908 44.7451C110.726 44.7451 109.649 43.9277 109.36 42.7413C109.019 41.3174 109.886 39.8935 111.278 39.5506C112.145 39.3397 113.038 39.1287 113.905 38.9445C115.323 38.6279 116.715 39.5506 117.031 40.9745C117.346 42.3984 116.427 43.796 115.008 44.1123C114.194 44.2969 113.353 44.4815 112.512 44.6924C112.328 44.7451 112.092 44.7451 111.908 44.7451ZM153.572 44.007C153.388 44.007 153.204 43.9803 153.046 43.954C152.232 43.7694 151.365 43.6114 150.551 43.4795C149.132 43.2159 148.16 41.8446 148.423 40.421C148.685 38.9971 150.052 38.0214 151.47 38.285C152.363 38.4433 153.256 38.6279 154.123 38.7862C155.542 39.0761 156.461 40.4737 156.172 41.8976C155.884 43.1366 154.78 44.007 153.572 44.007ZM124.833 42.5304C123.493 42.5304 122.363 41.5284 122.232 40.1571C122.075 38.7069 123.125 37.4149 124.57 37.257L127.25 37.0194C128.694 36.9141 129.955 37.9951 130.061 39.4453C130.165 40.8956 129.088 42.1612 127.644 42.2665C126.803 42.3195 125.936 42.3984 125.095 42.4774C124.991 42.5037 124.912 42.5304 124.833 42.5304ZM140.568 42.2402H140.384C139.544 42.1875 138.677 42.1349 137.836 42.1085C136.391 42.0555 135.262 40.8429 135.314 39.3663C135.367 37.9161 136.575 36.7821 138.047 36.8351C138.94 36.8614 139.859 36.9141 140.752 36.9667C142.197 37.0724 143.3 38.3117 143.195 39.7616C143.09 41.1591 141.934 42.2402 140.568 42.2402Z" fill="#26323B"/>
<path d="M203.93 64.5732C200.016 64.5732 196.838 67.7636 196.838 71.6924C196.838 75.6209 200.016 78.8116 203.93 78.8116C207.844 78.8116 211.023 75.6209 211.023 71.6924C211.023 67.7636 207.844 64.5732 203.93 64.5732Z" fill="#5CEAA9"/>
<path d="M203.93 59.2997C197.126 59.2997 191.584 64.8634 191.584 71.6924C191.584 78.5214 197.126 84.0851 203.93 84.0851C210.734 84.0851 216.277 78.5214 216.277 71.6924C216.277 64.8634 210.734 59.2997 203.93 59.2997ZM196.811 71.6924C196.811 67.7636 199.99 64.5732 203.904 64.5732C207.818 64.5732 210.997 67.7636 210.997 71.6924C210.997 75.6209 207.818 78.8116 203.904 78.8116C199.99 78.8116 196.811 75.6209 196.811 71.6924Z" fill="#26323B"/>
<path d="M189.719 107.578H79.0711C78.2567 109.292 77.5213 111.058 76.8909 112.852H191.925C191.268 111.058 190.533 109.292 189.719 107.578Z" fill="#5CEAA9"/>
<path d="M185.069 82.8721C171.54 69.2928 153.546 61.8047 134.395 61.8047C115.244 61.8047 97.2499 69.2928 83.7208 82.8721C70.1922 96.4511 62.7314 114.513 62.7314 133.734C62.7314 152.956 70.1922 171.018 83.7208 184.597C97.2499 198.176 115.244 205.664 134.395 205.664C153.546 205.664 171.54 198.176 185.069 184.597C198.598 171.018 206.058 152.956 206.058 133.734C206.058 114.513 198.624 96.4511 185.069 82.8721ZM79.7544 161.235H102.635C102.924 162.079 103.239 162.923 103.555 163.766C106.444 171.255 110.463 178.427 115.481 185.071C118.16 188.604 120.814 191.61 123.23 194.062C104.185 190.529 88.2131 178.11 79.7544 161.235ZM131.768 194.906C128.616 192.164 124.045 187.734 119.526 181.723C115.665 176.581 111.409 169.699 108.23 161.209H131.768V194.906ZM137.022 194.906V161.235H160.559C157.381 169.699 153.125 176.607 149.263 181.749C144.745 187.761 140.174 192.164 137.022 194.906ZM145.586 194.089C148.002 191.61 150.656 188.631 153.335 185.098C158.379 178.427 162.398 171.281 165.261 163.793C165.577 162.949 165.892 162.105 166.181 161.262H189.062C180.603 178.11 164.631 190.529 145.586 194.089ZM191.4 155.962H167.81C169.728 148.975 170.699 141.75 170.699 134.394C170.699 127.09 169.728 119.865 167.836 112.825H162.346C164.237 119.312 165.419 126.51 165.419 134.394C165.419 142.304 164.211 149.528 162.319 155.962H137.022V112.852H131.768V155.962H106.471C104.579 149.528 103.371 142.33 103.371 134.394C103.371 126.536 104.579 119.312 106.444 112.825H100.954C99.0623 119.865 98.0905 127.09 98.0905 134.394C98.0905 141.75 99.0623 148.948 100.98 155.962H77.3899C74.7107 149.054 73.2393 141.565 73.2393 133.734C73.2393 126.404 74.5268 119.364 76.8909 112.852C77.5476 111.059 78.283 109.292 79.0712 107.578C87.3987 89.912 103.896 76.8339 123.651 73.301C121.129 75.9638 118.292 79.2072 115.454 83.083C110.437 89.9384 106.418 97.2685 103.528 104.836C103.187 105.732 102.871 106.655 102.556 107.578H108.152C111.357 98.877 115.665 91.7052 119.553 86.3524C124.071 80.1826 128.616 75.5946 131.768 72.7208V107.578H137.022V72.7208C140.174 75.5946 144.719 80.2089 149.237 86.3524C153.151 91.7052 157.459 98.8507 160.638 107.578H166.234C165.918 106.655 165.603 105.759 165.261 104.836C162.372 97.2422 158.379 89.9384 153.335 83.083C150.524 79.2072 147.687 75.9375 145.165 73.301C164.92 76.8339 181.417 89.912 189.745 107.578C190.559 109.292 191.295 111.059 191.925 112.852C194.289 119.364 195.577 126.404 195.577 133.734C195.551 141.565 194.079 149.08 191.4 155.962Z" fill="#26323B"/>
</svg>
