<svg width="232" height="232" viewBox="0 0 232 232" fill="none" xmlns="http://www.w3.org/2000/svg">
<path d="M73.8142 185.691H61.3533C52.6079 185.691 45.4939 178.577 45.4939 169.831V115.57C45.4939 106.824 52.6079 99.7102 61.3533 99.7102H73.8142C82.5595 99.7102 89.6739 106.824 89.6739 115.57V169.831C89.6739 178.577 82.5595 185.691 73.8142 185.691ZM61.3759 108.772C57.6376 108.772 54.5791 111.831 54.5791 115.57V169.831C54.5791 173.57 57.6376 176.628 61.3759 176.628H73.8368C77.5751 176.628 80.6337 173.57 80.6337 169.831V115.57C80.6337 111.831 77.5751 108.772 73.8368 108.772H61.3759Z" fill="#26323B"/>
<path d="M189.134 40.2602H176.674C172.935 40.2602 169.876 43.3188 169.876 47.0571V169.831C169.876 173.57 172.935 176.628 176.674 176.628H189.134C192.873 176.628 195.931 173.57 195.931 169.831V47.0571C195.931 43.3188 192.873 40.2602 189.134 40.2602ZM131.475 68.1274H119.013C115.275 68.1274 112.216 71.186 112.216 74.9243V169.831C112.216 173.57 115.275 176.628 119.013 176.628H131.475C135.212 176.628 138.271 173.57 138.271 169.831V74.9243C138.271 71.186 135.212 68.1274 131.475 68.1274ZM73.8139 108.682H61.353C57.6147 108.682 54.5562 111.74 54.5562 115.479V169.831C54.5562 173.57 57.6147 176.628 61.353 176.628H73.8139C77.5522 176.628 80.6108 173.57 80.6108 169.831V115.479C80.6108 111.74 77.5749 108.682 73.8139 108.682Z" fill="#2B6F7E"/>
<path d="M189.134 31.1977H176.674C167.928 31.1977 160.814 38.3117 160.814 47.0571V94.1591C156.667 92.2107 152.114 90.9422 147.333 90.5342V74.9468C147.333 66.2016 140.219 59.0875 131.475 59.0875H119.013C110.267 59.0875 103.154 66.2016 103.154 74.9468V169.854C103.154 178.599 110.267 185.713 119.013 185.713H131.475C140.129 185.713 147.175 178.758 147.333 170.148C152.114 169.74 156.667 168.472 160.814 166.524V169.854C160.814 178.599 167.928 185.713 176.674 185.713H189.134C197.88 185.713 204.994 178.599 204.994 169.854V47.0571C204.994 38.3117 197.857 31.1977 189.134 31.1977ZM169.876 113.667C172.958 118.469 174.747 124.179 174.747 130.319C174.747 136.436 172.958 142.145 169.876 146.971V113.667ZM112.964 130.319C112.964 115.184 123.884 102.564 138.271 99.9369V160.7C123.884 158.073 112.964 145.453 112.964 130.319ZM119.013 68.1274H131.475C135.212 68.1274 138.271 71.186 138.271 74.9243V90.7609C127.713 92.256 118.469 97.8747 112.216 105.94V74.9243C112.216 71.186 115.275 68.1274 119.013 68.1274ZM131.475 176.628H119.013C115.275 176.628 112.216 173.57 112.216 169.831V154.697C118.447 162.763 127.691 168.404 138.271 169.876C138.249 173.615 135.212 176.628 131.475 176.628ZM147.333 161.018V99.6196C152.273 100.164 156.849 101.885 160.814 104.513V156.147C156.849 158.752 152.273 160.474 147.333 161.018ZM169.876 169.831V166.003L180.435 176.628H176.674C172.913 176.628 169.876 173.592 169.876 169.831ZM195.931 169.831C195.931 172.391 194.504 174.635 192.397 175.79L173.637 156.94C179.958 149.871 183.81 140.537 183.81 130.319C183.81 118.22 178.395 107.345 169.876 100.028V47.0571C169.876 43.3188 172.935 40.2602 176.674 40.2602H189.134C192.873 40.2602 195.931 43.3188 195.931 47.0571V169.831ZM202.139 199.669H199.874C198.627 199.669 197.608 198.65 197.608 197.404C197.608 196.158 198.627 195.139 199.874 195.139H202.139C203.385 195.139 204.404 196.158 204.404 197.404C204.404 198.65 203.408 199.669 202.139 199.669ZM190.811 199.669H188.545C187.299 199.669 186.28 198.65 186.28 197.404C186.28 196.158 187.299 195.139 188.545 195.139H190.811C192.057 195.139 193.076 196.158 193.076 197.404C193.076 198.65 192.08 199.669 190.811 199.669ZM179.483 199.669H177.217C175.971 199.669 174.952 198.65 174.952 197.404C174.952 196.158 175.971 195.139 177.217 195.139H179.483C180.729 195.139 181.748 196.158 181.748 197.404C181.748 198.65 180.752 199.669 179.483 199.669ZM168.155 199.669H165.889C164.643 199.669 163.623 198.65 163.623 197.404C163.623 196.158 164.643 195.139 165.889 195.139H168.155C169.401 195.139 170.42 196.158 170.42 197.404C170.42 198.65 169.423 199.669 168.155 199.669ZM156.827 199.669H154.561C153.315 199.669 152.295 198.65 152.295 197.404C152.295 196.158 153.315 195.139 154.561 195.139H156.827C158.073 195.139 159.092 196.158 159.092 197.404C159.092 198.65 158.095 199.669 156.827 199.669ZM145.499 199.669H143.233C141.987 199.669 140.967 198.65 140.967 197.404C140.967 196.158 141.987 195.139 143.233 195.139H145.499C146.745 195.139 147.764 196.158 147.764 197.404C147.764 198.65 146.767 199.669 145.499 199.669ZM134.171 199.669H131.905C130.659 199.669 129.639 198.65 129.639 197.404C129.639 196.158 130.659 195.139 131.905 195.139H134.171C135.416 195.139 136.435 196.158 136.435 197.404C136.435 198.65 135.439 199.669 134.171 199.669ZM122.842 199.669H120.577C119.331 199.669 118.311 198.65 118.311 197.404C118.311 196.158 119.331 195.139 120.577 195.139H122.842C124.088 195.139 125.107 196.158 125.107 197.404C125.107 198.65 124.111 199.669 122.842 199.669ZM111.514 199.669H109.249C108.003 199.669 106.983 198.65 106.983 197.404C106.983 196.158 108.003 195.139 109.249 195.139H111.514C112.76 195.139 113.779 196.158 113.779 197.404C113.779 198.65 112.783 199.669 111.514 199.669ZM100.186 199.669H97.9199C96.6746 199.669 95.655 198.65 95.655 197.404C95.655 196.158 96.6746 195.139 97.9199 195.139H100.186C101.432 195.139 102.451 196.158 102.451 197.404C102.451 198.65 101.455 199.669 100.186 199.669ZM88.8578 199.669H86.5921C85.346 199.669 84.3265 198.65 84.3265 197.404C84.3265 196.158 85.346 195.139 86.5921 195.139H88.8578C90.1039 195.139 91.1235 196.158 91.1235 197.404C91.1235 198.65 90.1261 199.669 88.8578 199.669ZM77.5296 199.669H75.264C74.0178 199.669 72.9984 198.65 72.9984 197.404C72.9984 196.158 74.0178 195.139 75.264 195.139H77.5296C78.7757 195.139 79.7952 196.158 79.7952 197.404C79.7952 198.65 78.7984 199.669 77.5296 199.669ZM66.2015 199.669H63.9358C62.6898 199.669 61.6702 198.65 61.6702 197.404C61.6702 196.158 62.6898 195.139 63.9358 195.139H66.2015C67.4475 195.139 68.4671 196.158 68.4671 197.404C68.4671 198.65 67.4702 199.669 66.2015 199.669ZM54.8733 199.669H52.6077C51.3616 199.669 50.3421 198.65 50.3421 197.404C50.3421 196.158 51.3616 195.139 52.6077 195.139H54.8733C56.1195 195.139 57.139 196.158 57.139 197.404C57.139 198.65 56.1421 199.669 54.8733 199.669ZM43.5452 199.669H41.2796C40.0335 199.669 39.0139 198.65 39.0139 197.404C39.0139 196.158 40.0335 195.139 41.2796 195.139H43.5452C44.7913 195.139 45.8108 196.158 45.8108 197.404C45.8108 198.65 44.8139 199.669 43.5452 199.669ZM32.2171 199.669H29.9515C28.7054 199.669 27.6859 198.65 27.6859 197.404C27.6859 196.158 28.7054 195.139 29.9515 195.139H32.2171C33.4632 195.139 34.4827 196.158 34.4827 197.404C34.4827 198.65 33.4859 199.669 32.2171 199.669ZM28.9546 191.604C27.7085 191.604 26.689 190.584 26.689 189.339V187.073C26.689 185.827 27.7085 184.807 28.9546 184.807C30.2007 184.807 31.2203 185.827 31.2203 187.073V189.339C31.2203 190.584 30.2007 191.604 28.9546 191.604ZM28.9546 180.276C27.7085 180.276 26.689 179.256 26.689 178.01V175.745C26.689 174.499 27.7085 173.479 28.9546 173.479C30.2007 173.479 31.2203 174.499 31.2203 175.745V178.01C31.2203 179.256 30.2007 180.276 28.9546 180.276ZM28.9546 168.948C27.7085 168.948 26.689 167.928 26.689 166.682V164.416C26.689 163.171 27.7085 162.151 28.9546 162.151C30.2007 162.151 31.2203 163.171 31.2203 164.416V166.682C31.2203 167.928 30.2007 168.948 28.9546 168.948ZM28.9546 157.62C27.7085 157.62 26.689 156.6 26.689 155.354V153.088C26.689 151.842 27.7085 150.822 28.9546 150.822C30.2007 150.822 31.2203 151.842 31.2203 153.088V155.354C31.2203 156.6 30.2007 157.62 28.9546 157.62ZM28.9546 146.292C27.7085 146.292 26.689 145.272 26.689 144.026V141.76C26.689 140.514 27.7085 139.494 28.9546 139.494C30.2007 139.494 31.2203 140.514 31.2203 141.76V144.026C31.2203 145.272 30.2007 146.292 28.9546 146.292ZM28.9546 134.964C27.7085 134.964 26.689 133.944 26.689 132.698V130.432C26.689 129.186 27.7085 128.166 28.9546 128.166C30.2007 128.166 31.2203 129.186 31.2203 130.432V132.698C31.2203 133.944 30.2007 134.964 28.9546 134.964ZM28.9546 123.636C27.7085 123.636 26.689 122.616 26.689 121.37V119.104C26.689 117.858 27.7085 116.838 28.9546 116.838C30.2007 116.838 31.2203 117.858 31.2203 119.104V121.37C31.2203 122.616 30.2007 123.636 28.9546 123.636ZM28.9546 112.307C27.7085 112.307 26.689 111.287 26.689 110.042V107.776C26.689 106.53 27.7085 105.51 28.9546 105.51C30.2007 105.51 31.2203 106.53 31.2203 107.776V110.042C31.2203 111.287 30.2007 112.307 28.9546 112.307ZM28.9546 100.979C27.7085 100.979 26.689 99.9591 26.689 98.7129V96.448C26.689 95.2018 27.7085 94.1822 28.9546 94.1822C30.2007 94.1822 31.2203 95.2018 31.2203 96.448V98.7129C31.2203 99.9591 30.2007 100.979 28.9546 100.979ZM28.9546 89.6507C27.7085 89.6507 26.689 88.6313 26.689 87.3852V85.1196C26.689 83.8734 27.7085 82.854 28.9546 82.854C30.2007 82.854 31.2203 83.8734 31.2203 85.1196V87.3852C31.2203 88.6313 30.2007 89.6507 28.9546 89.6507ZM28.9546 78.3227C27.7085 78.3227 26.689 77.3031 26.689 76.0571V73.7914C26.689 72.5453 27.7085 71.5258 28.9546 71.5258C30.2007 71.5258 31.2203 72.5453 31.2203 73.7914V76.0571C31.2203 77.3031 30.2007 78.3227 28.9546 78.3227ZM28.9546 66.9946C27.7085 66.9946 26.689 65.975 26.689 64.7289V62.4633C26.689 61.2172 27.7085 60.1977 28.9546 60.1977C30.2007 60.1977 31.2203 61.2172 31.2203 62.4633V64.7289C31.2203 65.975 30.2007 66.9946 28.9546 66.9946ZM28.9546 55.6664C27.7085 55.6664 26.689 54.6468 26.689 53.4008V51.1352C26.689 49.8891 27.7085 48.8695 28.9546 48.8695C30.2007 48.8695 31.2203 49.8891 31.2203 51.1352V53.4008C31.2203 54.6468 30.2007 55.6664 28.9546 55.6664Z" fill="#26323B"/>
<path d="M143.867 99.4382C126.829 99.4382 112.964 113.304 112.964 130.341C112.964 147.379 126.829 161.222 143.867 161.222C160.905 161.222 174.771 147.356 174.771 130.319C174.771 113.281 160.905 99.4382 143.867 99.4382Z" fill="white"/>
<path d="M143.868 104.604C140.695 104.604 137.569 105.171 134.623 106.303C133.445 106.756 132.879 108.07 133.333 109.226C133.785 110.404 135.1 110.971 136.255 110.517C138.679 109.588 141.239 109.113 143.868 109.113C155.558 109.113 165.051 118.628 165.051 130.296C165.051 134.759 163.669 139.019 161.086 142.644C160.089 144.048 158.911 145.317 157.574 146.45C156.623 147.266 156.509 148.693 157.325 149.644C157.778 150.165 158.413 150.437 159.047 150.437C159.568 150.437 160.089 150.256 160.52 149.893C162.106 148.534 163.556 146.994 164.779 145.272C167.928 140.876 169.605 135.711 169.605 130.274C169.582 116.136 158.05 104.604 143.868 104.604Z" fill="#5DE9A8"/>
</svg>
