<svg width="215" height="214" viewBox="0 0 215 214" fill="none" xmlns="http://www.w3.org/2000/svg">
<path d="M90.9549 170.698C87.9737 170.698 85.5378 168.274 85.5378 165.306C85.5378 162.339 87.9737 159.915 90.9549 159.915C93.9368 159.915 96.3719 162.339 96.3719 165.306C96.3933 168.274 93.9368 170.698 90.9549 170.698Z" fill="#26323B"/>
<path d="M126.081 153.959C126.081 155.025 125.2 155.903 124.129 155.903H57.7813C56.7105 155.903 55.8286 155.025 55.8286 153.959V54.4196C55.8286 53.3537 56.7105 52.476 57.7813 52.476H124.108C125.179 52.476 126.061 53.3537 126.061 54.4196V153.959H126.081Z" fill="#2B6F7E"/>
<path d="M63.3662 74.0223C60.5107 74.0223 58.1802 76.342 58.1802 79.1842C58.1802 82.026 60.5107 84.3463 63.3662 84.3463C66.2217 84.3463 68.5522 82.026 68.5522 79.1842C68.5522 76.342 66.2217 74.0223 63.3662 74.0223ZM168.809 120.751C162.636 120.751 157.597 125.766 157.597 131.911C157.597 138.055 162.636 143.071 168.809 143.071C174.981 143.071 180.021 138.055 180.021 131.911C180.021 125.766 174.981 120.751 168.809 120.751Z" fill="white"/>
<path d="M168.809 116.572C160.305 116.572 153.397 123.447 153.397 131.911C153.397 140.375 160.305 147.25 168.809 147.25C177.312 147.25 184.22 140.375 184.22 131.911C184.22 123.447 177.312 116.572 168.809 116.572ZM157.597 131.911C157.597 125.766 162.636 120.751 168.809 120.751C174.981 120.751 180.021 125.766 180.021 131.911C180.021 138.055 174.981 143.071 168.809 143.071C162.615 143.071 157.597 138.055 157.597 131.911Z" fill="#26323B"/>
<path d="M76.7826 114.105C74.3891 114.105 72.4574 116.028 72.4574 118.411C72.4574 120.793 74.3891 122.716 76.7826 122.716C79.1762 122.716 81.1079 120.793 81.1079 118.411C81.1079 116.028 79.1552 114.105 76.7826 114.105ZM26.938 88.045C24.0825 88.045 21.752 90.3646 21.752 93.2073C21.752 96.0491 24.0825 98.3687 26.938 98.3687C29.7934 98.3687 32.124 96.0491 32.124 93.2073C32.124 90.3646 29.7934 88.045 26.938 88.045Z" fill="white"/>
<path d="M40.1866 86.6446C39.8086 85.5582 38.6328 84.9727 37.5201 85.3286L33.5937 86.6446C31.8931 84.9309 29.5415 83.865 26.917 83.865C21.752 83.865 17.5317 88.045 17.5317 93.2072C17.5317 98.3686 21.731 102.549 26.917 102.549C32.1031 102.549 36.3022 98.3686 36.3022 93.2072C36.3022 92.2036 36.1343 91.2214 35.8403 90.3227L38.8638 89.32C39.9556 88.9231 40.5435 87.7523 40.1866 86.6446ZM26.938 98.3481C24.0826 98.3481 21.752 96.0286 21.752 93.1859C21.752 90.3441 24.0826 88.0245 26.938 88.0245C29.7935 88.0245 32.1241 90.3441 32.1241 93.1859C32.1241 96.0286 29.7935 98.3481 26.938 98.3481ZM69.1611 89.32L68.4263 87.0209C71.0088 85.3491 72.7305 82.4654 72.7305 79.1842C72.7305 74.0432 68.5312 69.8425 63.3452 69.8425C58.1592 69.8425 53.96 74.0223 53.96 79.1842C53.96 84.3463 58.1592 88.5255 63.3452 88.5255C63.7231 88.5255 64.1011 88.505 64.458 88.4632L65.1299 90.595C65.4028 91.4936 66.2427 92.0577 67.1245 92.0577C67.3345 92.0577 67.5444 92.0159 67.7544 91.9527C68.9092 91.5977 69.5181 90.4064 69.1611 89.32ZM65.2769 83.97C65.1929 83.9905 65.1089 84.0323 65.0459 84.0536C64.521 84.2414 63.9541 84.3463 63.3662 84.3463C60.5107 84.3463 58.1802 82.0259 58.1802 79.1842C58.1802 76.342 60.5107 74.0223 63.3662 74.0223C66.2217 74.0223 68.5522 76.342 68.5522 79.1842C68.5522 81.3367 67.1875 83.1968 65.2769 83.97ZM70.9668 103.991C71.1768 103.991 71.3867 103.949 71.5967 103.886C72.7095 103.531 73.3184 102.361 72.9615 101.274L71.7017 97.2823C71.3448 96.1745 70.1689 95.5686 69.0771 95.9236C67.9644 96.2787 67.3555 97.4495 67.7124 98.5359L68.9722 102.527C69.2451 103.426 70.064 103.991 70.9668 103.991ZM91.9632 105.579L90.2835 106.854C89.3593 107.544 89.1706 108.86 89.884 109.78C90.3041 110.323 90.9343 110.595 91.5637 110.595C92.0052 110.595 92.4459 110.449 92.824 110.176L94.5036 108.901C95.4271 108.212 95.6165 106.896 94.9023 105.976C94.2096 105.057 92.8866 104.889 91.9632 105.579ZM111.615 93.3327C110.923 92.4127 109.6 92.225 108.676 92.935L106.996 94.21C106.072 94.8996 105.883 96.2164 106.597 97.1363C107.017 97.6791 107.647 97.9513 108.277 97.9513C108.718 97.9513 109.159 97.8045 109.536 97.5331L111.216 96.2582C112.14 95.5686 112.329 94.2518 111.615 93.3327ZM100.319 99.2468L98.6397 100.522C97.7155 101.211 97.5268 102.527 98.241 103.447C98.6603 103.991 99.2905 104.262 99.9206 104.262C100.361 104.262 100.802 104.116 101.18 103.844L102.86 102.569C103.784 101.88 103.973 100.564 103.258 99.6436C102.566 98.745 101.243 98.5572 100.319 99.2468ZM83.6062 111.911L82.8508 112.475C81.2969 110.908 79.1553 109.925 76.7827 109.925C76.4258 109.925 76.0898 109.947 75.7539 109.989L75.5229 109.236C75.166 108.128 73.9902 107.522 72.8774 107.877C71.7646 108.233 71.1558 109.403 71.5127 110.511L71.8276 111.535C69.665 113.081 68.2583 115.59 68.2583 118.431C68.2583 123.112 72.0796 126.916 76.7827 126.916C81.4858 126.916 85.3072 123.112 85.3072 118.431C85.3072 117.638 85.2018 116.864 84.9926 116.132L86.1466 115.255C87.0709 114.565 87.2595 113.249 86.5462 112.329C85.8534 111.389 84.5304 111.2 83.6062 111.911ZM72.4576 118.411C72.4576 116.028 74.3892 114.105 76.7827 114.105C79.1763 114.105 81.1079 116.028 81.1079 118.411C81.1079 120.793 79.1763 122.715 76.7827 122.715C74.3892 122.715 72.4576 120.793 72.4576 118.411Z" fill="#26323B"/>
<path d="M181.364 86.6864H140.023V44.8898C140.023 36.1543 132.884 29.0488 124.108 29.0488H57.7813C49.005 29.0488 41.8662 36.1543 41.8662 44.8898V167.229C41.8662 175.965 49.005 183.07 57.7813 183.07H181.343C190.119 183.07 197.258 176.048 197.258 167.418V102.361C197.279 93.7082 190.141 86.6864 181.364 86.6864ZM124.129 174.711H57.7813C53.6451 174.711 50.2647 171.367 50.2647 167.229V85.4746L50.7896 85.3073C51.8814 84.931 52.4693 83.7609 52.1123 82.6532C51.8394 81.8383 51.0835 81.2949 50.2856 81.2323V44.9107C50.2856 40.7937 53.6451 37.4291 57.8022 37.4291H124.129C128.265 37.4291 131.646 40.7728 131.646 44.9107V90.9082C131.246 90.95 130.826 91.1173 130.491 91.3887C129.609 92.1414 129.504 93.4582 130.26 94.3355L131.625 95.9237L131.646 95.945V167.25C131.625 171.367 128.265 174.711 124.129 174.711ZM188.881 167.418C188.881 171.451 185.521 174.711 181.364 174.711H138.154C139.351 172.475 140.044 169.946 140.044 167.229V104.597C140.527 104.597 141.01 104.43 141.388 104.095C142.27 103.343 142.375 102.026 141.618 101.148L140.254 99.56C140.191 99.4764 140.107 99.4141 140.023 99.3305V95.0463H181.364C185.501 95.0463 188.881 98.3269 188.881 102.34V167.418Z" fill="#26323B"/>
<path d="M153.881 115.464C153.124 114.586 151.802 114.482 150.92 115.234C150.038 115.986 149.933 117.303 150.689 118.18L152.054 119.769C152.474 120.25 153.062 120.5 153.649 120.5C154.132 120.5 154.615 120.334 155.014 119.999C155.896 119.246 156.001 117.93 155.245 117.052L153.881 115.464ZM147.057 107.522C146.3 106.645 144.978 106.54 144.096 107.293C143.215 108.045 143.109 109.361 143.865 110.239L145.23 111.828C145.65 112.308 146.238 112.559 146.826 112.559C147.309 112.559 147.791 112.392 148.19 112.057C149.072 111.305 149.177 109.989 148.422 109.11L147.057 107.522Z" fill="#26323B"/>
<path d="M103.658 46.6036H78.2524C77.0977 46.6036 76.1528 45.6631 76.1528 44.5136C76.1528 43.3643 77.0977 42.4238 78.2524 42.4238H103.658C104.812 42.4238 105.757 43.3643 105.757 44.5136C105.757 45.6631 104.812 46.6036 103.658 46.6036Z" fill="#5DE9A8"/>
<path d="M125.41 66.8959C118.355 66.8959 112.623 72.6011 112.623 79.623C112.623 86.6445 118.355 92.3504 125.41 92.3504C132.465 92.3504 138.196 86.6445 138.196 79.623C138.196 72.6011 132.465 66.8959 125.41 66.8959Z" fill="white"/>
<path d="M125.409 62.7162C116.046 62.7162 108.423 70.3024 108.423 79.623C108.423 88.9436 116.046 96.5296 125.409 96.5296C134.774 96.5296 142.396 88.9436 142.396 79.623C142.396 70.3024 134.774 62.7162 125.409 62.7162ZM112.644 79.623C112.644 72.6012 118.376 66.8959 125.431 66.8959C132.485 66.8959 138.217 72.6012 138.217 79.623C138.217 86.6446 132.485 92.3504 125.431 92.3504C118.376 92.3504 112.644 86.6446 112.644 79.623Z" fill="#26323B"/>
</svg>
