<svg width="221" height="221" viewBox="0 0 221 221" fill="none" xmlns="http://www.w3.org/2000/svg">
<path d="M184.462 178.721H36.6679C28.2725 178.721 21.4525 171.901 21.4525 163.506V55.8111C21.4525 47.4157 28.2725 40.5958 36.6679 40.5958H184.44C192.835 40.5958 199.656 47.4157 199.656 55.8111V163.506C199.677 171.901 192.857 178.721 184.462 178.721Z" fill="white"/>
<path d="M191.044 55.7032C191.044 52.1422 188.131 49.2286 184.569 49.2286H36.5599C32.9989 49.2286 30.0853 52.1422 30.0853 55.7032V81.6232H191.023V55.7032H191.044ZM50.8257 76.4436C44.7395 76.4436 39.7757 71.4797 39.7757 65.3936C39.7757 59.3075 44.7395 54.3436 50.8257 54.3436C56.9117 54.3436 61.8757 59.3075 61.8757 65.3936C61.8757 71.4797 56.9334 76.4436 50.8257 76.4436ZM111.644 74.976H80.8676C75.6665 74.976 71.4365 70.7459 71.4365 65.5446C71.4365 60.3434 75.6665 56.1133 80.8676 56.1133H111.644C116.845 56.1133 121.075 60.3434 121.075 65.5446C121.075 70.7459 116.845 74.976 111.644 74.976Z" fill="#2B6F7E"/>
<path d="M46.0344 162.469H110.521C111.708 162.469 112.679 161.498 112.679 160.311C112.679 159.125 111.708 158.153 110.521 158.153H46.0344C44.2 158.153 42.7108 156.664 42.7108 154.829V113.219C42.7108 112.032 41.7396 111.061 40.5526 111.061C39.3656 111.061 38.3944 112.032 38.3944 113.219V154.851C38.416 159.038 41.8259 162.469 46.0344 162.469Z" fill="#5CEAA9"/>
<path d="M50.8257 58.66C47.1135 58.66 44.092 61.6814 44.092 65.3935C44.092 69.1056 47.1135 72.1271 50.8257 72.1271C54.5378 72.1271 57.5592 69.1056 57.5592 65.3935C57.5592 61.6814 54.5378 58.66 50.8257 58.66Z" fill="white"/>
<path d="M50.8258 54.3436C44.7396 54.3436 39.7758 59.3074 39.7758 65.3936C39.7758 71.4796 44.7396 76.4436 50.8258 76.4436C56.9118 76.4436 61.8758 71.4796 61.8758 65.3936C61.8758 59.3074 56.9335 54.3436 50.8258 54.3436ZM50.8258 72.1271C47.1136 72.1271 44.0921 69.1056 44.0921 65.3936C44.0921 61.6815 47.1136 58.6599 50.8258 58.6599C54.5379 58.6599 57.5593 61.6815 57.5593 65.3936C57.5593 69.1056 54.5379 72.1271 50.8258 72.1271Z" fill="#26323B"/>
<path d="M111.644 60.4513H80.8677C78.062 60.4513 75.7529 62.739 75.7529 65.5662C75.7529 68.3935 78.0405 70.6811 80.8677 70.6811H111.644C114.45 70.6811 116.759 68.3935 116.759 65.5662C116.759 62.739 114.45 60.4513 111.644 60.4513Z" fill="white"/>
<path d="M111.644 56.1348H80.8676C75.6666 56.1348 71.4365 60.365 71.4365 65.5662C71.4365 70.7675 75.6666 74.9975 80.8676 74.9975H111.644C116.845 74.9975 121.075 70.7675 121.075 65.5662C121.075 60.365 116.845 56.1348 111.644 56.1348ZM111.644 70.6596H80.8676C78.0619 70.6596 75.7529 68.3719 75.7529 65.5446C75.7529 62.7173 78.0405 60.4296 80.8676 60.4296H111.644C114.45 60.4296 116.759 62.7173 116.759 65.5446C116.759 68.3719 114.45 70.6596 111.644 70.6596Z" fill="#26323B"/>
<path d="M184.569 40.5958H36.56C28.2293 40.5958 21.4525 47.3725 21.4525 55.7032V163.613C21.4525 171.944 28.2293 178.721 36.56 178.721H184.548C192.879 178.721 199.656 171.944 199.656 163.613V55.7032C199.677 47.3725 192.9 40.5958 184.569 40.5958ZM191.044 163.613C191.044 167.175 188.131 170.088 184.569 170.088H36.56C32.9989 170.088 30.0854 167.175 30.0854 163.613V85.9399H191.023V163.613H191.044ZM191.044 81.6232H30.1069V55.7032C30.1069 52.1421 33.0205 49.2286 36.5815 49.2286H184.569C188.131 49.2286 191.044 52.1421 191.044 55.7032V81.6232Z" fill="#26323B"/>
<path d="M99.2558 134.802L74.5875 125.025L99.2558 115.594V105.558L63.9044 120.859V129.384L99.2558 144.75V134.802ZM122.737 98.1553H115.313L102.536 151.506H109.831L122.737 98.1553ZM161.412 120.924L126.017 105.623V115.507L150.707 125.111L126.017 134.823V144.794L161.412 129.384V120.924Z" fill="#26323B"/>
</svg>
