<svg width="352" height="91" viewBox="0 0 352 91" fill="none" xmlns="http://www.w3.org/2000/svg">
<path d="M108.062 81H101.554V59.9091H108.351C110.397 59.9091 112.147 60.3313 113.603 61.1758C115.058 62.0134 116.174 63.2183 116.95 64.7905C117.726 66.3558 118.114 68.2301 118.114 70.4134C118.114 72.6103 117.722 74.5018 116.94 76.0877C116.157 77.6668 115.017 78.882 113.521 79.7333C112.024 80.5778 110.205 81 108.062 81ZM104.108 78.7344H107.898C109.642 78.7344 111.087 78.398 112.233 77.7251C113.38 77.0523 114.235 76.0946 114.798 74.8519C115.361 73.6093 115.642 72.1297 115.642 70.4134C115.642 68.7107 115.364 67.2449 114.808 66.016C114.252 64.7802 113.421 63.8327 112.316 63.1736C111.21 62.5077 109.834 62.1747 108.186 62.1747H104.108V78.7344ZM122.068 81V65.1818H124.499V81H122.068ZM123.304 62.5455C122.83 62.5455 122.422 62.3841 122.078 62.0614C121.742 61.7388 121.574 61.3509 121.574 60.8977C121.574 60.4446 121.742 60.0567 122.078 59.734C122.422 59.4113 122.83 59.25 123.304 59.25C123.778 59.25 124.183 59.4113 124.519 59.734C124.862 60.0567 125.034 60.4446 125.034 60.8977C125.034 61.3509 124.862 61.7388 124.519 62.0614C124.183 62.3841 123.778 62.5455 123.304 62.5455ZM135.335 87.2614C134.161 87.2614 133.152 87.1103 132.307 86.8082C131.463 86.513 130.759 86.1217 130.196 85.6342C129.64 85.1536 129.197 84.6387 128.868 84.0895L130.804 82.7301C131.023 83.0185 131.301 83.348 131.638 83.7188C131.974 84.0964 132.434 84.4225 133.018 84.6971C133.608 84.9786 134.381 85.1193 135.335 85.1193C136.612 85.1193 137.666 84.8104 138.497 84.1925C139.327 83.5746 139.743 82.6065 139.743 81.2884V78.0753H139.537C139.358 78.3636 139.104 78.7206 138.775 79.1463C138.452 79.5651 137.985 79.9393 137.374 80.2688C136.77 80.5915 135.953 80.7528 134.923 80.7528C133.646 80.7528 132.499 80.4508 131.483 79.8466C130.474 79.2424 129.674 78.3636 129.084 77.2102C128.5 76.0568 128.209 74.6562 128.209 73.0085C128.209 71.3883 128.493 69.9774 129.063 68.7759C129.633 67.5676 130.426 66.6339 131.442 65.9748C132.458 65.3088 133.632 64.9759 134.964 64.9759C135.994 64.9759 136.811 65.1475 137.415 65.4908C138.026 65.8272 138.493 66.2116 138.816 66.6442C139.145 67.0698 139.399 67.42 139.578 67.6946H139.825V65.1818H142.173V81.4531C142.173 82.8125 141.864 83.9179 141.246 84.7692C140.635 85.6274 139.811 86.2556 138.775 86.6538C137.745 87.0588 136.598 87.2614 135.335 87.2614ZM135.253 78.5696C136.227 78.5696 137.051 78.3465 137.724 77.9002C138.397 77.454 138.908 76.812 139.259 75.9744C139.609 75.1368 139.784 74.1345 139.784 72.9673C139.784 71.8277 139.612 70.8219 139.269 69.9499C138.926 69.078 138.418 68.3949 137.745 67.9006C137.072 67.4062 136.241 67.1591 135.253 67.1591C134.223 67.1591 133.365 67.42 132.678 67.9418C131.998 68.4635 131.487 69.1638 131.144 70.0426C130.807 70.9214 130.639 71.8963 130.639 72.9673C130.639 74.0658 130.811 75.0373 131.154 75.8817C131.504 76.7193 132.019 77.3784 132.699 77.859C133.385 78.3327 134.236 78.5696 135.253 78.5696ZM146.622 81V65.1818H149.052V81H146.622ZM147.858 62.5455C147.384 62.5455 146.975 62.3841 146.632 62.0614C146.296 61.7388 146.128 61.3509 146.128 60.8977C146.128 60.4446 146.296 60.0567 146.632 59.734C146.975 59.4113 147.384 59.25 147.858 59.25C148.331 59.25 148.736 59.4113 149.073 59.734C149.416 60.0567 149.588 60.4446 149.588 60.8977C149.588 61.3509 149.416 61.7388 149.073 62.0614C148.736 62.3841 148.331 62.5455 147.858 62.5455ZM160.383 65.1818V67.2415H152.186V65.1818H160.383ZM154.575 61.392H157.005V76.4688C157.005 77.1553 157.105 77.6702 157.304 78.0135C157.51 78.3499 157.771 78.5765 158.086 78.6932C158.409 78.803 158.749 78.858 159.106 78.858C159.374 78.858 159.593 78.8442 159.765 78.8168C159.937 78.7824 160.074 78.755 160.177 78.7344L160.671 80.9176C160.507 80.9794 160.277 81.0412 159.981 81.103C159.686 81.1716 159.312 81.206 158.859 81.206C158.172 81.206 157.499 81.0584 156.84 80.7631C156.188 80.4679 155.646 80.0182 155.213 79.4141C154.788 78.8099 154.575 78.0478 154.575 77.1278V61.392ZM168.694 81.3707C167.691 81.3707 166.782 81.1819 165.965 80.8043C165.148 80.4199 164.499 79.8672 164.018 79.1463C163.538 78.4186 163.297 77.5398 163.297 76.5099C163.297 75.6037 163.476 74.8691 163.833 74.3061C164.19 73.7363 164.667 73.29 165.264 72.9673C165.862 72.6446 166.521 72.4044 167.242 72.2464C167.969 72.0817 168.701 71.9512 169.435 71.8551C170.396 71.7315 171.176 71.6388 171.773 71.5771C172.377 71.5084 172.816 71.3951 173.091 71.2372C173.373 71.0793 173.513 70.8047 173.513 70.4134V70.331C173.513 69.3149 173.235 68.5253 172.679 67.9624C172.13 67.3994 171.296 67.1179 170.177 67.1179C169.016 67.1179 168.107 67.3719 167.448 67.88C166.789 68.388 166.325 68.9304 166.057 69.5071L163.751 68.6832C164.162 67.7221 164.712 66.9737 165.398 66.4382C166.092 65.8958 166.847 65.5182 167.664 65.3054C168.488 65.0857 169.298 64.9759 170.094 64.9759C170.602 64.9759 171.186 65.0376 171.845 65.1612C172.511 65.2779 173.153 65.5217 173.771 65.8924C174.396 66.2631 174.914 66.8227 175.326 67.571C175.738 68.3194 175.944 69.3217 175.944 70.5781V81H173.513V78.858H173.39C173.225 79.2012 172.95 79.5685 172.566 79.9599C172.181 80.3512 171.67 80.6842 171.031 80.9588C170.393 81.2334 169.614 81.3707 168.694 81.3707ZM169.064 79.1875C170.026 79.1875 170.836 78.9987 171.495 78.6211C172.161 78.2435 172.662 77.756 172.998 77.1587C173.342 76.5614 173.513 75.9332 173.513 75.2741V73.0497C173.41 73.1733 173.184 73.2866 172.834 73.3896C172.49 73.4857 172.092 73.5715 171.639 73.647C171.193 73.7157 170.757 73.7775 170.331 73.8324C169.912 73.8804 169.573 73.9216 169.312 73.956C168.68 74.0384 168.09 74.1722 167.54 74.3576C166.998 74.5361 166.559 74.8073 166.222 75.1712C165.893 75.5282 165.728 76.0156 165.728 76.6335C165.728 77.478 166.04 78.1165 166.665 78.549C167.297 78.9747 168.096 79.1875 169.064 79.1875ZM182.81 59.9091V81H180.38V59.9091H182.81ZM195.747 59.9091H198.796L205.963 77.4162H206.21L213.378 59.9091H216.426V81H214.037V64.9759H213.831L207.24 81H204.933L198.343 64.9759H198.137V81H195.747V59.9091ZM225.872 81.3707C224.87 81.3707 223.96 81.1819 223.143 80.8043C222.326 80.4199 221.678 79.8672 221.197 79.1463C220.716 78.4186 220.476 77.5398 220.476 76.5099C220.476 75.6037 220.655 74.8691 221.012 74.3061C221.369 73.7363 221.846 73.29 222.443 72.9673C223.04 72.6446 223.699 72.4044 224.42 72.2464C225.148 72.0817 225.879 71.9512 226.614 71.8551C227.575 71.7315 228.354 71.6388 228.952 71.5771C229.556 71.5084 229.995 71.3951 230.27 71.2372C230.551 71.0793 230.692 70.8047 230.692 70.4134V70.331C230.692 69.3149 230.414 68.5253 229.858 67.9624C229.309 67.3994 228.474 67.1179 227.355 67.1179C226.195 67.1179 225.285 67.3719 224.626 67.88C223.967 68.388 223.504 68.9304 223.236 69.5071L220.929 68.6832C221.341 67.7221 221.89 66.9737 222.577 66.4382C223.27 65.8958 224.026 65.5182 224.843 65.3054C225.666 65.0857 226.477 64.9759 227.273 64.9759C227.781 64.9759 228.365 65.0376 229.024 65.1612C229.69 65.2779 230.332 65.5217 230.949 65.8924C231.574 66.2631 232.093 66.8227 232.505 67.571C232.916 68.3194 233.122 69.3217 233.122 70.5781V81H230.692V78.858H230.568C230.404 79.2012 230.129 79.5685 229.745 79.9599C229.36 80.3512 228.849 80.6842 228.21 80.9588C227.572 81.2334 226.792 81.3707 225.872 81.3707ZM226.243 79.1875C227.204 79.1875 228.014 78.9987 228.674 78.6211C229.34 78.2435 229.841 77.756 230.177 77.1587C230.52 76.5614 230.692 75.9332 230.692 75.2741V73.0497C230.589 73.1733 230.362 73.2866 230.012 73.3896C229.669 73.4857 229.271 73.5715 228.818 73.647C228.371 73.7157 227.936 73.7775 227.51 73.8324C227.091 73.8804 226.751 73.9216 226.49 73.956C225.859 74.0384 225.268 74.1722 224.719 74.3576C224.177 74.5361 223.737 74.8073 223.401 75.1712C223.071 75.5282 222.907 76.0156 222.907 76.6335C222.907 77.478 223.219 78.1165 223.844 78.549C224.475 78.9747 225.275 79.1875 226.243 79.1875ZM237.558 81V65.1818H239.906V67.571H240.071C240.36 66.7884 240.881 66.1533 241.637 65.6658C242.392 65.1784 243.243 64.9347 244.191 64.9347C244.369 64.9347 244.592 64.9381 244.86 64.945C245.128 64.9518 245.33 64.9621 245.468 64.9759V67.4474C245.385 67.4268 245.196 67.396 244.901 67.3548C244.613 67.3067 244.307 67.2827 243.985 67.2827C243.216 67.2827 242.529 67.444 241.925 67.7667C241.328 68.0825 240.854 68.5219 240.504 69.0849C240.16 69.641 239.989 70.276 239.989 70.9901V81H237.558ZM250.614 75.233L250.573 72.2259H251.067L257.988 65.1818H260.995L253.621 72.6378H253.415L250.614 75.233ZM248.348 81V59.9091H250.779V81H248.348ZM258.4 81L252.221 73.1733L253.951 71.4844L261.489 81H258.4ZM270.104 81.3295C268.579 81.3295 267.265 80.9931 266.159 80.3203C265.061 79.6406 264.213 78.6932 263.616 77.478C263.025 76.2559 262.73 74.8348 262.73 73.2145C262.73 71.5942 263.025 70.1662 263.616 68.9304C264.213 67.6877 265.044 66.7197 266.108 66.0263C267.179 65.326 268.428 64.9759 269.856 64.9759C270.68 64.9759 271.494 65.1132 272.297 65.3878C273.1 65.6624 273.832 66.1087 274.491 66.7266C275.15 67.3376 275.675 68.1477 276.066 69.157C276.458 70.1662 276.653 71.4089 276.653 72.8849V73.9148H264.46V71.8139H274.182C274.182 70.9214 274.003 70.125 273.646 69.4247C273.296 68.7244 272.795 68.1718 272.143 67.7667C271.497 67.3616 270.735 67.1591 269.856 67.1591C268.888 67.1591 268.051 67.3994 267.344 67.88C266.643 68.3537 266.104 68.9716 265.727 69.7337C265.349 70.4957 265.16 71.3127 265.16 72.1847V73.5852C265.16 74.7798 265.366 75.7925 265.778 76.6232C266.197 77.4471 266.777 78.0753 267.519 78.5078C268.26 78.9335 269.122 79.1463 270.104 79.1463C270.742 79.1463 271.319 79.0571 271.834 78.8786C272.355 78.6932 272.805 78.4186 273.183 78.0547C273.56 77.6839 273.852 77.224 274.058 76.6747L276.406 77.3338C276.159 78.1302 275.744 78.8305 275.16 79.4347C274.576 80.032 273.856 80.4988 272.997 80.8352C272.139 81.1648 271.175 81.3295 270.104 81.3295ZM287.23 65.1818V67.2415H279.032V65.1818H287.23ZM281.421 61.392H283.852V76.4688C283.852 77.1553 283.951 77.6702 284.15 78.0135C284.356 78.3499 284.617 78.5765 284.933 78.6932C285.256 78.803 285.596 78.858 285.953 78.858C286.22 78.858 286.44 78.8442 286.612 78.8168C286.783 78.7824 286.921 78.755 287.024 78.7344L287.518 80.9176C287.353 80.9794 287.123 81.0412 286.828 81.103C286.533 81.1716 286.159 81.206 285.706 81.206C285.019 81.206 284.346 81.0584 283.687 80.7631C283.035 80.4679 282.492 80.0182 282.06 79.4141C281.634 78.8099 281.421 78.0478 281.421 77.1278V61.392ZM290.886 81V65.1818H293.316V81H290.886ZM292.121 62.5455C291.648 62.5455 291.239 62.3841 290.896 62.0614C290.559 61.7388 290.391 61.3509 290.391 60.8977C290.391 60.4446 290.559 60.0567 290.896 59.734C291.239 59.4113 291.648 59.25 292.121 59.25C292.595 59.25 293 59.4113 293.337 59.734C293.68 60.0567 293.851 60.4446 293.851 60.8977C293.851 61.3509 293.68 61.7388 293.337 62.0614C293 62.3841 292.595 62.5455 292.121 62.5455ZM300.198 71.4844V81H297.767V65.1818H300.115V67.6534H300.321C300.692 66.8501 301.255 66.2048 302.01 65.7173C302.766 65.223 303.74 64.9759 304.935 64.9759C306.006 64.9759 306.943 65.1955 307.746 65.6349C308.55 66.0675 309.174 66.7266 309.621 67.6122C310.067 68.491 310.29 69.6032 310.29 70.9489V81H307.86V71.1136C307.86 69.871 307.537 68.9029 306.892 68.2095C306.246 67.5092 305.361 67.1591 304.235 67.1591C303.459 67.1591 302.766 67.3273 302.154 67.6637C301.55 68.0001 301.073 68.491 300.723 69.1364C300.373 69.7817 300.198 70.5644 300.198 71.4844ZM321.116 87.2614C319.942 87.2614 318.933 87.1103 318.089 86.8082C317.244 86.513 316.54 86.1217 315.977 85.6342C315.421 85.1536 314.978 84.6387 314.649 84.0895L316.585 82.7301C316.805 83.0185 317.083 83.348 317.419 83.7188C317.756 84.0964 318.216 84.4225 318.799 84.6971C319.39 84.9786 320.162 85.1193 321.116 85.1193C322.393 85.1193 323.447 84.8104 324.278 84.1925C325.109 83.5746 325.524 82.6065 325.524 81.2884V78.0753H325.318C325.139 78.3636 324.885 78.7206 324.556 79.1463C324.233 79.5651 323.766 79.9393 323.155 80.2688C322.551 80.5915 321.734 80.7528 320.704 80.7528C319.427 80.7528 318.281 80.4508 317.265 79.8466C316.255 79.2424 315.456 78.3636 314.865 77.2102C314.282 76.0568 313.99 74.6562 313.99 73.0085C313.99 71.3883 314.275 69.9774 314.845 68.7759C315.414 67.5676 316.207 66.6339 317.223 65.9748C318.24 65.3088 319.414 64.9759 320.745 64.9759C321.775 64.9759 322.592 65.1475 323.196 65.4908C323.807 65.8272 324.274 66.2116 324.597 66.6442C324.927 67.0698 325.181 67.42 325.359 67.6946H325.606V65.1818H327.954V81.4531C327.954 82.8125 327.645 83.9179 327.027 84.7692C326.416 85.6274 325.593 86.2556 324.556 86.6538C323.526 87.0588 322.379 87.2614 321.116 87.2614ZM321.034 78.5696C322.009 78.5696 322.833 78.3465 323.505 77.9002C324.178 77.454 324.69 76.812 325.04 75.9744C325.39 75.1368 325.565 74.1345 325.565 72.9673C325.565 71.8277 325.393 70.8219 325.05 69.9499C324.707 69.078 324.199 68.3949 323.526 67.9006C322.853 67.4062 322.022 67.1591 321.034 67.1591C320.004 67.1591 319.146 67.42 318.459 67.9418C317.78 68.4635 317.268 69.1638 316.925 70.0426C316.588 70.9214 316.42 71.8963 316.42 72.9673C316.42 74.0658 316.592 75.0373 316.935 75.8817C317.285 76.7193 317.8 77.3784 318.48 77.859C319.166 78.3327 320.018 78.5696 321.034 78.5696Z" fill="white"/>
<path d="M101.752 49V12.6364H116.773C119.496 12.6364 121.846 13.1276 123.822 14.1101C125.811 15.0807 127.344 16.4775 128.421 18.3004C129.498 20.1115 130.037 22.2599 130.037 24.7457C130.037 27.267 129.487 29.4096 128.386 31.1733C127.285 32.9252 125.722 34.2628 123.698 35.1861C121.674 36.0975 119.277 36.5533 116.507 36.5533H107.008V29.6286H114.874C116.199 29.6286 117.306 29.4569 118.194 29.1136C119.094 28.7585 119.774 28.2259 120.236 27.5156C120.697 26.7936 120.928 25.8703 120.928 24.7457C120.928 23.6212 120.697 22.692 120.236 21.9581C119.774 21.2124 119.094 20.656 118.194 20.2891C117.294 19.9103 116.188 19.7209 114.874 19.7209H110.541V49H101.752ZM122.224 32.3807L131.28 49H121.692L112.814 32.3807H122.224ZM134.858 49V21.7273H143.54V49H134.858ZM139.208 18.549C137.989 18.549 136.941 18.1465 136.065 17.3416C135.189 16.5249 134.751 15.5424 134.751 14.3942C134.751 13.2578 135.189 12.2872 136.065 11.4822C136.941 10.6655 137.989 10.2571 139.208 10.2571C140.439 10.2571 141.486 10.6655 142.35 11.4822C143.226 12.2872 143.664 13.2578 143.664 14.3942C143.664 15.5424 143.226 16.5249 142.35 17.3416C141.486 18.1465 140.439 18.549 139.208 18.549ZM175.523 21.7273L166.165 49H156.222L146.883 21.7273H156.027L161.052 40.5128H161.336L166.378 21.7273H175.523ZM190.721 49.5149C187.869 49.5149 185.407 48.9527 183.335 47.8281C181.275 46.6918 179.689 45.076 178.577 42.9808C177.476 40.8738 176.925 38.3703 176.925 35.4702C176.925 32.6529 177.482 30.1908 178.594 28.0838C179.707 25.965 181.275 24.3196 183.3 23.1477C185.324 21.964 187.709 21.3722 190.455 21.3722C192.396 21.3722 194.172 21.674 195.782 22.2777C197.392 22.8814 198.782 23.7751 199.954 24.9588C201.126 26.1425 202.038 27.6044 202.689 29.3445C203.34 31.0727 203.665 33.0554 203.665 35.2926V37.4588H179.961V32.4162H195.586C195.575 31.4929 195.356 30.6702 194.93 29.9482C194.503 29.2261 193.917 28.6638 193.172 28.2614C192.438 27.8471 191.591 27.6399 190.633 27.6399C189.662 27.6399 188.792 27.8589 188.023 28.2969C187.253 28.723 186.644 29.3089 186.194 30.0547C185.744 30.7886 185.507 31.6231 185.483 32.5582V37.6896C185.483 38.8023 185.702 39.7789 186.14 40.6193C186.578 41.4479 187.2 42.093 188.005 42.5547C188.81 43.0163 189.769 43.2472 190.881 43.2472C191.651 43.2472 192.349 43.1406 192.976 42.9276C193.604 42.7145 194.142 42.4008 194.592 41.9865C195.042 41.5722 195.379 41.0632 195.604 40.4595L203.577 40.6903C203.245 42.4777 202.517 44.0343 201.393 45.3601C200.28 46.674 198.818 47.6979 197.007 48.4318C195.196 49.1539 193.101 49.5149 190.721 49.5149ZM208.1 49V21.7273H216.534V26.6989H216.818C217.315 24.8996 218.126 23.562 219.25 22.6861C220.375 21.7983 221.683 21.3544 223.174 21.3544C223.577 21.3544 223.991 21.384 224.417 21.4432C224.843 21.4905 225.24 21.5675 225.607 21.674V29.2202C225.193 29.0781 224.648 28.9657 223.973 28.8828C223.31 28.8 222.719 28.7585 222.198 28.7585C221.168 28.7585 220.239 28.9893 219.41 29.451C218.593 29.9008 217.948 30.5341 217.475 31.3509C217.013 32.1558 216.782 33.1027 216.782 34.1918V49H208.1ZM252.955 30.0547L244.983 30.2678C244.9 29.6996 244.675 29.1965 244.308 28.7585C243.941 28.3087 243.462 27.9595 242.87 27.7109C242.29 27.4505 241.615 27.3203 240.846 27.3203C239.84 27.3203 238.981 27.5215 238.271 27.924C237.573 28.3265 237.229 28.871 237.241 29.5575C237.229 30.0902 237.443 30.5518 237.881 30.9425C238.33 31.3331 239.129 31.6468 240.278 31.8835L245.533 32.8778C248.256 33.3987 250.28 34.2628 251.606 35.4702C252.943 36.6776 253.618 38.2756 253.63 40.2642C253.618 42.1345 253.062 43.7621 251.961 45.147C250.872 46.532 249.38 47.6091 247.486 48.3786C245.592 49.1361 243.426 49.5149 240.988 49.5149C237.093 49.5149 234.022 48.7159 231.773 47.1179C229.535 45.508 228.257 43.3537 227.937 40.6548L236.513 40.4418C236.703 41.4361 237.194 42.1937 237.987 42.7145C238.78 43.2353 239.792 43.4957 241.023 43.4957C242.136 43.4957 243.041 43.2886 243.74 42.8743C244.438 42.46 244.793 41.9096 244.805 41.223C244.793 40.6075 244.521 40.1162 243.988 39.7493C243.456 39.3705 242.621 39.0746 241.485 38.8615L236.726 37.956C233.992 37.4588 231.956 36.5414 230.618 35.2038C229.281 33.8544 228.618 32.138 228.63 30.0547C228.618 28.2318 229.103 26.6752 230.086 25.3849C231.068 24.0829 232.465 23.0885 234.276 22.402C236.087 21.7154 238.224 21.3722 240.686 21.3722C244.379 21.3722 247.291 22.1475 249.422 23.6982C251.552 25.237 252.73 27.3558 252.955 30.0547ZM257.904 49V21.7273H266.587V49H257.904ZM262.255 18.549C261.035 18.549 259.988 18.1465 259.112 17.3416C258.236 16.5249 257.798 15.5424 257.798 14.3942C257.798 13.2578 258.236 12.2872 259.112 11.4822C259.988 10.6655 261.035 10.2571 262.255 10.2571C263.486 10.2571 264.533 10.6655 265.397 11.4822C266.273 12.2872 266.711 13.2578 266.711 14.3942C266.711 15.5424 266.273 16.5249 265.397 17.3416C264.533 18.1465 263.486 18.549 262.255 18.549ZM282.074 49.3906C280.062 49.3906 278.233 48.8698 276.588 47.8281C274.943 46.7865 273.629 45.224 272.646 43.1406C271.664 41.0573 271.172 38.4709 271.172 35.3814C271.172 32.1735 271.681 29.5339 272.699 27.4624C273.717 25.3909 275.049 23.858 276.694 22.8636C278.352 21.8693 280.133 21.3722 282.039 21.3722C283.471 21.3722 284.696 21.6207 285.714 22.1179C286.732 22.6032 287.573 23.2306 288.236 24C288.898 24.7694 289.402 25.5684 289.745 26.397H289.922V12.6364H298.605V49H290.011V44.5788H289.745C289.378 45.4193 288.857 46.2064 288.182 46.9403C287.508 47.6742 286.661 48.2661 285.643 48.7159C284.637 49.1657 283.448 49.3906 282.074 49.3906ZM285.093 42.6257C286.146 42.6257 287.046 42.3298 287.792 41.7379C288.537 41.1342 289.112 40.2879 289.514 39.1989C289.916 38.1098 290.118 36.8314 290.118 35.3636C290.118 33.8722 289.916 32.5878 289.514 31.5107C289.123 30.4335 288.549 29.6049 287.792 29.0249C287.046 28.4448 286.146 28.1548 285.093 28.1548C284.016 28.1548 283.104 28.4508 282.358 29.0426C281.613 29.6345 281.045 30.469 280.654 31.5462C280.275 32.6233 280.086 33.8958 280.086 35.3636C280.086 36.8314 280.281 38.1098 280.672 39.1989C281.062 40.2879 281.625 41.1342 282.358 41.7379C283.104 42.3298 284.016 42.6257 285.093 42.6257ZM316.844 49.5149C313.992 49.5149 311.53 48.9527 309.458 47.8281C307.398 46.6918 305.812 45.076 304.7 42.9808C303.599 40.8738 303.048 38.3703 303.048 35.4702C303.048 32.6529 303.605 30.1908 304.717 28.0838C305.83 25.965 307.398 24.3196 309.423 23.1477C311.447 21.964 313.832 21.3722 316.578 21.3722C318.519 21.3722 320.295 21.674 321.905 22.2777C323.515 22.8814 324.906 23.7751 326.077 24.9588C327.249 26.1425 328.161 27.6044 328.812 29.3445C329.463 31.0727 329.788 33.0554 329.788 35.2926V37.4588H306.085V32.4162H321.71C321.698 31.4929 321.479 30.6702 321.053 29.9482C320.626 29.2261 320.04 28.6638 319.295 28.2614C318.561 27.8471 317.714 27.6399 316.756 27.6399C315.785 27.6399 314.915 27.8589 314.146 28.2969C313.376 28.723 312.767 29.3089 312.317 30.0547C311.867 30.7886 311.63 31.6231 311.607 32.5582V37.6896C311.607 38.8023 311.826 39.7789 312.263 40.6193C312.701 41.4479 313.323 42.093 314.128 42.5547C314.933 43.0163 315.892 43.2472 317.004 43.2472C317.774 43.2472 318.472 43.1406 319.099 42.9276C319.727 42.7145 320.265 42.4008 320.715 41.9865C321.165 41.5722 321.502 41.0632 321.727 40.4595L329.7 40.6903C329.368 42.4777 328.64 44.0343 327.516 45.3601C326.403 46.674 324.941 47.6979 323.13 48.4318C321.319 49.1539 319.224 49.5149 316.844 49.5149Z" fill="white"/>
<g clip-path="url(#clip0_128_18)">
<path d="M44 91C68.109 91 87.6532 71.3005 87.6532 47C87.6532 22.6995 68.109 3 44 3C19.8909 3 0.34668 22.6995 0.34668 47C0.34668 71.3005 19.8909 91 44 91Z" fill="white"/>
<path d="M44 88.5114C66.9261 88.5114 85.5114 69.9261 85.5114 47C85.5114 24.0739 66.9261 5.48865 44 5.48865C21.0739 5.48865 2.48865 24.0739 2.48865 47C2.48865 69.9261 21.0739 88.5114 44 88.5114Z" fill="#26323B"/>
<path d="M43.9595 82.5238C63.5885 82.5238 79.501 66.6192 79.501 47C79.501 27.3807 63.5885 11.4761 43.9595 11.4761C24.3305 11.4761 8.41809 27.3807 8.41809 47C8.41809 66.6192 24.3305 82.5238 43.9595 82.5238Z" fill="white"/>
<path d="M16.822 49.8952C16.822 49.8952 16.7903 34.1713 16.8009 34.1696C21.317 33.7172 22.7127 33.0872 22.7127 33.0872C22.7127 33.0872 24.1277 33.7876 28.4714 34.152L28.5436 49.7772L16.822 49.8952Z" fill="#26323B"/>
<path d="M21.4349 33.4621L21.442 31.5842L23.8972 31.607L23.9042 33.4726L21.4349 33.4621Z" fill="#26323B"/>
<path d="M22.6687 21.5768V33.1857" stroke="#26323B" stroke-width="0.5" stroke-miterlimit="10"/>
<path d="M25.2717 33.9056C22.8359 32.5346 22.6687 27.647 22.6687 27.647C22.6687 27.647 22.5525 32.267 20.129 33.9338" stroke="#26323B" stroke-width="0.5" stroke-miterlimit="10"/>
<path d="M33.3168 57.3083L33.6072 19.7552L36.923 18.4299L45.774 19.0037L45.8709 57.2995L33.3168 57.3083Z" fill="#26323B"/>
<path d="M50.1441 29.3419L49.9188 64.7337L61.6633 64.5753L61.5947 28.0254L52.5007 27.8793L50.1441 29.3419Z" fill="#26323B"/>
<path d="M63.5536 62.099C63.4884 62.1008 63.4356 62.0445 63.4356 61.9741L63.4075 34.335L64.4811 33.7841L64.5286 31.6176C65.8081 31.6176 65.8152 29.9209 65.882 29.9209L67.1052 29.2961H71.2747C71.3556 29.2961 71.382 31.4451 72.6651 31.5789L72.6915 33.8757L73.6524 33.8862L73.7316 61.791C73.7316 61.8597 73.6806 61.916 73.6172 61.9177L63.5536 62.099Z" fill="#26323B"/>
<path d="M8.44793 48.4837C8.44793 48.4837 28.5841 45.3386 43.9999 57.5459C54.9313 66.2016 77.2499 59.5752 77.2499 59.5752C77.2499 59.5752 70.502 82.6154 43.9999 82.6154C8.18745 81.2408 8.44793 48.4837 8.44793 48.4837Z" fill="url(#paint0_linear_128_18)"/>
<path d="M5.71289 49.9128C11.593 49.0028 17.6386 49.1366 23.466 50.3457C28.8745 51.4686 34.0594 53.5102 38.8185 56.3086C40.7034 57.4174 42.4441 58.7392 44.3132 59.8673C45.6438 60.6699 47.0482 61.3492 48.5108 61.8808C51.8354 63.0881 55.3924 63.419 58.9089 63.3293C64.2223 63.1955 69.5146 62.2433 74.7049 61.1556C75.511 60.9867 76.317 60.8124 77.1214 60.6329C77.4575 60.559 77.8412 60.2845 78.1087 60.0926C78.4836 59.8233 78.869 59.4942 79.1682 59.1405C79.3724 58.8993 80.0166 58.0405 79.2527 58.2094C73.8601 59.4062 68.3935 60.4886 62.8671 60.786C59.2345 60.9814 55.5297 60.8054 52.0361 59.716C50.5682 59.2584 49.2518 58.6829 47.9001 57.9296C46.1841 56.9721 44.623 55.7701 42.9598 54.7281C38.294 51.8048 33.1742 49.5872 27.8273 48.2672C22.0826 46.8486 16.1022 46.4949 10.2255 47.1654C9.43001 47.2569 8.63449 47.3678 7.84249 47.4892C7.52393 47.5385 7.09801 47.8536 6.85513 48.0296C6.48025 48.2989 6.09481 48.628 5.79561 48.9817C5.56681 49.2563 4.95961 50.0307 5.71289 49.9128Z" fill="#26323B"/>
<path d="M7.11394 58.4118C7.24242 58.3925 7.37266 58.3713 7.50114 58.352C7.75634 58.3133 7.33922 58.3749 7.59266 58.3379C7.6437 58.3309 7.69474 58.3238 7.74578 58.3168C8.0221 58.2781 8.30018 58.2411 8.5765 58.2059C9.08866 58.1425 9.60258 58.0862 10.1165 58.0369C11.0845 57.9454 12.056 57.8838 13.0275 57.8539C14.7611 57.7993 16.4965 57.8504 18.2231 58.0123C21.289 58.3009 24.2951 58.9645 27.2589 59.7881C30.1735 60.5977 33.0546 61.5253 35.9867 62.2715C39.3871 63.1374 42.8455 63.7393 46.3479 63.9822C50.9661 64.3043 55.609 64.0403 60.192 63.4225C60.9101 63.3257 61.6264 63.2201 62.341 63.1093C62.6595 63.06 63.0855 62.7449 63.3283 62.5689C63.7032 62.2997 64.0887 61.9705 64.3879 61.6168C64.5551 61.4197 64.8543 61.124 64.8543 60.8512C64.8543 60.6171 64.6448 60.6611 64.4741 60.6875C59.8383 61.4091 54.9912 61.791 50.2392 61.5728C46.6541 61.4073 43.1007 60.8793 39.6106 60.0469C36.6415 59.3376 33.7304 58.4171 30.7983 57.5758C27.8661 56.7345 24.8987 56.0094 21.8663 55.6416C18.2407 55.2033 14.5763 55.279 10.956 55.7437C10.3858 55.8176 9.81554 55.8985 9.24706 55.9883C8.9285 56.0376 8.50258 56.3526 8.2597 56.5286C7.88482 56.7979 7.49938 57.127 7.20018 57.4808C7.03298 57.6779 6.73378 57.9736 6.73378 58.2464C6.73202 58.4822 6.94322 58.44 7.11394 58.4118Z" fill="#26323B"/>
<path d="M9.86299 70.0877C10.6867 69.8817 11.5156 69.7163 12.3534 69.5843C12.5399 69.5544 12.2091 69.6037 12.3516 69.5843C12.3991 69.5773 12.4467 69.5702 12.4942 69.5649C12.5963 69.5509 12.6983 69.5368 12.8004 69.5245C12.994 69.4998 13.1876 69.4787 13.383 69.4593C13.7702 69.4206 14.1574 69.3925 14.5446 69.3731C16.0036 69.3009 17.4662 69.3713 18.9129 69.5685C20.3103 69.7585 21.6902 70.0613 23.0524 70.4238C24.471 70.8005 25.8719 71.2405 27.2694 71.684C28.7795 72.1627 30.2895 72.6432 31.8137 73.0814C33.5103 73.5689 35.2211 74.0019 36.9511 74.3521C38.9329 74.7534 40.9375 75.0473 42.9527 75.2321C45.3235 75.4486 47.7065 75.5155 50.0843 75.4557C52.9232 75.3853 55.755 75.1406 58.5692 74.7657C62.0294 74.3064 65.4632 73.664 68.867 72.8861C69.7998 72.6731 70.7308 72.4478 71.6584 72.2155C72.0016 72.1293 72.3694 71.8741 72.6457 71.6752C73.0206 71.4059 73.406 71.0768 73.7052 70.723C73.8971 70.4942 74.5553 69.6001 73.7897 69.792C70.282 70.6702 66.7391 71.4235 63.1663 71.9832C61.7249 72.2102 60.1972 72.4109 58.6713 72.571C57.2545 72.7189 55.8324 72.8315 54.4103 72.9019C51.9499 73.0233 49.4823 73.0216 47.0254 72.8614C44.9363 72.7259 42.8542 72.476 40.7915 72.1081C39.0033 71.7878 37.2327 71.3795 35.4815 70.9025C33.9187 70.4784 32.3716 69.9997 30.8263 69.5104C29.4078 69.0616 27.9892 68.604 26.5583 68.1957C25.1926 67.8067 23.811 67.4635 22.4083 67.2241C20.995 66.983 19.5641 66.851 18.1315 66.8581C16.4929 66.8669 14.8561 67.0552 13.2492 67.3808C12.8286 67.4653 12.4115 67.5621 11.9943 67.6659C11.6511 67.7521 11.2833 68.0073 11.007 68.2062C10.6321 68.4755 10.2467 68.8046 9.94747 69.1584C9.75387 69.3854 9.09563 70.2795 9.86299 70.0877Z" fill="#26323B"/>
</g>
<defs>
<linearGradient id="paint0_linear_128_18" x1="42.8489" y1="52.3989" x2="42.8489" y2="84.0943" gradientUnits="userSpaceOnUse">
<stop stop-color="#286D7E"/>
<stop offset="0.1604" stop-color="#2A7280"/>
<stop offset="0.3458" stop-color="#308084"/>
<stop offset="0.5437" stop-color="#3A978C"/>
<stop offset="0.7502" stop-color="#48B797"/>
<stop offset="0.9615" stop-color="#59E1A5"/>
<stop offset="1" stop-color="#5DE9A8"/>
</linearGradient>
<clipPath id="clip0_128_18">
<rect width="88" height="88" fill="white" transform="translate(0 3)"/>
</clipPath>
</defs>
</svg>
