<?xml version="1.0" encoding="utf-8"?>
<!-- Generator: Adobe Adobe Illustrator 24.2.0, SVG Export Plug-In . SVG Version: 6.00 Build 0)  -->
<svg version="1.1" id="Layer_1" xmlns="http://www.w3.org/2000/svg" xmlns:xlink="http://www.w3.org/1999/xlink" x="0px" y="0px"
	 width="500px" height="500px" viewBox="0 0 500 500" style="enable-background:new 0 0 500 500;" xml:space="preserve">
<style type="text/css">
	.st0{fill:#FFFFFF;}
	.st1{fill:#26323B;}
	.st2{fill:none;stroke:#26323B;stroke-width:2;stroke-miterlimit:10;}
	.st3{fill:url(#SVGID_1_);}
</style>
<g>
	<ellipse class="st0" cx="250" cy="250" rx="248.03" ry="250"/>
	<circle class="st1" cx="250" cy="250" r="235.86"/>
	<ellipse class="st0" cx="249.77" cy="250" rx="201.94" ry="201.84"/>
	<g>
		<path class="st1" d="M95.58,266.45c0,0-0.18-89.34-0.12-89.35c25.66-2.57,33.59-6.15,33.59-6.15s8.04,3.98,32.72,6.05l0.41,88.78
			L95.58,266.45z"/>
		<polygon class="st1" points="121.79,173.08 121.83,162.41 135.78,162.54 135.82,173.14 		"/>
		<line class="st2" x1="128.8" y1="105.55" x2="128.8" y2="171.51"/>
		<path class="st2" d="M143.59,175.6c-13.84-7.79-14.79-35.56-14.79-35.56s-0.66,26.25-14.43,35.72"/>
	</g>
	<polygon class="st1" points="189.3,308.57 190.95,95.2 209.79,87.67 260.08,90.93 260.63,308.52 	"/>
	<polygon class="st1" points="284.91,149.67 283.63,350.76 350.36,349.86 349.97,142.19 298.3,141.36 	"/>
	<path class="st1" d="M361.1,335.79c-0.37,0.01-0.67-0.31-0.67-0.71l-0.16-157.04l6.1-3.13l0.27-12.31c7.27,0,7.31-9.64,7.69-9.64
		l6.95-3.55h23.69c0.46,0,0.61,12.21,7.9,12.97l0.15,13.05l5.46,0.06l0.45,158.55c0,0.39-0.29,0.71-0.65,0.72L361.1,335.79z"/>
	<linearGradient id="SVGID_1_" gradientUnits="userSpaceOnUse" x1="243.4598" y1="280.6755" x2="243.4598" y2="460.763">
		<stop  offset="0" style="stop-color:#466374"/>
		<stop  offset="0.3705" style="stop-color:#476874"/>
		<stop  offset="0.7977" style="stop-color:#487675"/>
		<stop  offset="1" style="stop-color:#497F76"/>
	</linearGradient>
	<path class="st3" d="M48,258.43c0,0,114.41-17.87,202,51.49c62.11,49.18,188.92,11.53,188.92,11.53S400.58,452.36,250,452.36
		C46.52,444.55,48,258.43,48,258.43z"/>
	<g>
		<g>
			<path class="st1" d="M32.46,266.55c33.41-5.17,67.76-4.41,100.87,2.46c30.73,6.38,60.19,17.98,87.23,33.88
				c10.71,6.3,20.6,13.81,31.22,20.22c7.56,4.56,15.54,8.42,23.85,11.44c18.89,6.86,39.1,8.74,59.08,8.23
				c30.19-0.76,60.26-6.17,89.75-12.35c4.58-0.96,9.16-1.95,13.73-2.97c1.91-0.42,4.09-1.98,5.61-3.07c2.13-1.53,4.32-3.4,6.02-5.41
				c1.16-1.37,4.82-6.25,0.48-5.29c-30.64,6.8-61.7,12.95-93.1,14.64c-20.64,1.11-41.69,0.11-61.54-6.08
				c-8.34-2.6-15.82-5.87-23.5-10.15c-9.75-5.44-18.62-12.27-28.07-18.19c-26.51-16.61-55.6-29.21-85.98-36.71
				c-32.64-8.06-66.62-10.07-100.01-6.26c-4.52,0.52-9.04,1.15-13.54,1.84c-1.81,0.28-4.23,2.07-5.61,3.07
				c-2.13,1.53-4.32,3.4-6.02,5.41C31.63,262.82,28.18,267.22,32.46,266.55L32.46,266.55z"/>
		</g>
	</g>
	<g>
		<g>
			<path class="st1" d="M40.42,314.84c0.73-0.11,1.47-0.23,2.2-0.34c1.45-0.22-0.92,0.13,0.52-0.08c0.29-0.04,0.58-0.08,0.87-0.12
				c1.57-0.22,3.15-0.43,4.72-0.63c2.91-0.36,5.83-0.68,8.75-0.96c5.5-0.52,11.02-0.87,16.54-1.04c9.85-0.31,19.71-0.02,29.52,0.9
				c17.42,1.64,34.5,5.41,51.34,10.09c16.56,4.6,32.93,9.87,49.59,14.11c19.32,4.92,38.97,8.34,58.87,9.72
				c26.24,1.83,52.62,0.33,78.66-3.18c4.08-0.55,8.15-1.15,12.21-1.78c1.81-0.28,4.23-2.07,5.61-3.07c2.13-1.53,4.32-3.4,6.02-5.41
				c0.95-1.12,2.65-2.8,2.65-4.35c0-1.33-1.19-1.08-2.16-0.93c-26.34,4.1-53.88,6.27-80.88,5.03c-20.37-0.94-40.56-3.94-60.39-8.67
				c-16.87-4.03-33.41-9.26-50.07-14.04c-16.66-4.78-33.52-8.9-50.75-10.99c-20.6-2.49-41.42-2.06-61.99,0.58
				c-3.24,0.42-6.48,0.88-9.71,1.39c-1.81,0.28-4.23,2.07-5.61,3.07c-2.13,1.53-4.32,3.4-6.02,5.41c-0.95,1.12-2.65,2.8-2.65,4.35
				C38.25,315.24,39.45,315,40.42,314.84L40.42,314.84z"/>
		</g>
	</g>
	<g>
		<g>
			<path class="st1" d="M56.04,381.18c4.68-1.17,9.39-2.11,14.15-2.86c1.06-0.17-0.82,0.11-0.01,0c0.27-0.04,0.54-0.08,0.81-0.11
				c0.58-0.08,1.16-0.16,1.74-0.23c1.1-0.14,2.2-0.26,3.31-0.37c2.2-0.22,4.4-0.38,6.6-0.49c8.29-0.41,16.6-0.01,24.82,1.11
				c7.94,1.08,15.78,2.8,23.52,4.86c8.06,2.14,16.02,4.64,23.96,7.16c8.58,2.72,17.16,5.45,25.82,7.94
				c9.64,2.77,19.36,5.23,29.19,7.22c11.26,2.28,22.65,3.95,34.1,5c13.47,1.23,27.01,1.61,40.52,1.27
				c16.13-0.4,32.22-1.79,48.21-3.92c19.66-2.61,39.17-6.26,58.51-10.68c5.3-1.21,10.59-2.49,15.86-3.81
				c1.95-0.49,4.04-1.94,5.61-3.07c2.13-1.53,4.32-3.4,6.02-5.41c1.09-1.3,4.83-6.38,0.48-5.29c-19.93,4.99-40.06,9.27-60.36,12.45
				c-8.19,1.29-16.87,2.43-25.54,3.34c-8.05,0.84-16.13,1.48-24.21,1.88c-13.98,0.69-28,0.68-41.96-0.23
				c-11.87-0.77-23.7-2.19-35.42-4.28c-10.16-1.82-20.22-4.14-30.17-6.85c-8.88-2.41-17.67-5.13-26.45-7.91
				c-8.06-2.55-16.12-5.15-24.25-7.47c-7.76-2.21-15.61-4.16-23.58-5.52c-8.03-1.37-16.16-2.12-24.3-2.08
				c-9.31,0.05-18.61,1.12-27.74,2.97c-2.39,0.48-4.76,1.03-7.13,1.62c-1.95,0.49-4.04,1.94-5.61,3.07
				c-2.13,1.53-4.32,3.4-6.02,5.41C55.42,377.19,51.68,382.27,56.04,381.18L56.04,381.18z"/>
		</g>
	</g>
</g>
</svg>
