<?xml version="1.0" encoding="utf-8"?>
<!-- Generator: Adobe Adobe Illustrator 24.2.0, SVG Export Plug-In . SVG Version: 6.00 Build 0)  -->
<svg version="1.1" id="Layer_1" xmlns="http://www.w3.org/2000/svg" xmlns:xlink="http://www.w3.org/1999/xlink" x="0px" y="0px"
	 width="500px" height="500px" viewBox="0 0 500 500" style="enable-background:new 0 0 500 500;" xml:space="preserve">
<style type="text/css">
	.st0{fill:#26323B;}
	.st1{fill:none;stroke:#26323B;stroke-width:3;stroke-miterlimit:10;}
	.st2{fill:url(#SVGID_1_);}
</style>
<g>
	<g>
		<g>
			<path class="st0" d="M250,0C111.93,0,0,111.93,0,250s111.93,250,250,250s250-111.93,250-250S388.07,0,250,0z M249.76,463.95
				c-118.22,0-214.05-95.79-214.05-213.95S131.54,36.05,249.76,36.05S463.81,131.84,463.81,250S367.97,463.95,249.76,463.95z"/>
		</g>
	</g>
	<g>
		<path class="st0" d="M86.32,267.44c0,0-0.2-94.7-0.13-94.71c27.19-2.73,35.6-6.51,35.6-6.51s8.52,4.22,34.68,6.42l0.44,94.1
			L86.32,267.44z"/>
		<polygon class="st0" points="114.1,168.46 114.14,157.16 128.93,157.3 128.98,168.53 		"/>
		<line class="st1" x1="121.54" y1="96.89" x2="121.54" y2="166.81"/>
		<path class="st1" d="M137.21,171.14c-14.67-8.26-15.67-37.7-15.67-37.7s-0.7,27.83-15.29,37.86"/>
	</g>
	<polygon class="st0" points="185.66,312.08 187.4,85.91 207.38,77.93 260.69,81.39 261.27,312.03 	"/>
	<polygon class="st0" points="287,143.65 285.64,356.8 356.38,355.85 355.96,135.72 301.2,134.85 	"/>
	<path class="st0" d="M367.76,340.94c-0.39,0.01-0.71-0.33-0.71-0.76l-0.17-166.46l6.47-3.32l0.29-13.05
		c7.71,0,7.75-10.22,8.15-10.22l7.37-3.76h25.11c0.49,0,0.65,12.94,8.37,13.75l0.16,13.83l5.79,0.06l0.48,168.06
		c0,0.41-0.3,0.75-0.68,0.76L367.76,340.94z"/>
	<linearGradient id="SVGID_1_" gradientUnits="userSpaceOnUse" x1="243.1864" y1="281.9398" x2="243.1864" y2="473.4271">
		<stop  offset="0" style="stop-color:#466374"/>
		<stop  offset="0.3705" style="stop-color:#476874"/>
		<stop  offset="0.7977" style="stop-color:#487675"/>
		<stop  offset="1" style="stop-color:#497F76"/>
	</linearGradient>
	<path class="st2" d="M36.13,258.05c0,0,121.03-18.05,213.87,55.46c65.83,52.13,200.24,12.22,200.24,12.22S409.61,464.49,250,464.49
		C34.32,456.22,36.13,258.05,36.13,258.05z"/>
	<g>
		<g>
			<path class="st0" d="M27.78,266.13c34.37-5.32,69.67-4.66,103.63,2.98c31.21,7.03,60.74,19.84,88.05,36.41
				c11.21,6.8,21.66,14.76,32.88,21.54c8.07,4.87,16.58,8.99,25.44,12.19c20,7.23,41.39,9.2,62.53,8.67
				c31.91-0.81,63.69-6.53,94.86-13.05c4.9-1.03,9.79-2.09,14.68-3.17c1.91-0.42,4.09-1.98,5.61-3.07c2.13-1.53,4.32-3.4,6.02-5.41
				c1.16-1.37,4.82-6.25,0.48-5.29c-32.43,7.2-65.34,13.71-98.57,15.52c-21.86,1.19-44.14,0.15-65.17-6.36
				c-8.82-2.73-16.9-6.24-25-10.75c-10.38-5.77-19.83-13.01-29.81-19.41c-26.9-17.24-56.1-31.1-87.02-39.38
				c-33.25-8.91-67.96-11.01-102.13-7.14c-4.8,0.54-9.59,1.21-14.36,1.95c-1.81,0.28-4.23,2.07-5.61,3.07
				c-2.13,1.53-4.32,3.4-6.02,5.41C26.95,262.4,23.5,266.8,27.78,266.13L27.78,266.13z"/>
		</g>
	</g>
	<g>
		<g>
			<path class="st0" d="M28.22,318.32c2.97-0.46,5.36-0.8,8.88-1.24c3.09-0.39,6.18-0.73,9.28-1.02c5.83-0.55,11.68-0.93,17.54-1.11
				c10.44-0.32,20.89-0.02,31.29,0.96c18.46,1.74,36.57,5.74,54.41,10.69c17.55,4.87,34.9,10.46,52.56,14.96
				c20.48,5.21,41.31,8.84,62.4,10.31c27.81,1.94,55.77,0.35,83.37-3.37c4.3-0.58,8.59-1.21,12.87-1.87
				c1.81-0.28,4.23-2.07,5.61-3.07c2.13-1.53,4.32-3.4,6.02-5.41c0.95-1.12,2.65-2.8,2.65-4.35c0-1.33-1.19-1.08-2.16-0.93
				c-28.21,4.39-57.13,6.66-85.8,5.34c-21.59-0.99-42.99-4.17-64.01-9.19c-17.88-4.27-35.41-9.82-53.08-14.88
				c-17.66-5.06-35.53-9.44-53.8-11.65c-21.84-2.64-43.91-2.19-65.71,0.61c-3.41,0.44-6.82,0.93-10.22,1.46
				c-1.81,0.28-4.23,2.07-5.61,3.07c-2.13,1.53-4.32,3.4-6.02,5.41c-0.95,1.12-2.65,2.8-2.65,4.35
				C26.05,318.72,27.25,318.47,28.22,318.32L28.22,318.32z"/>
		</g>
	</g>
	<g>
		<g>
			<path class="st0" d="M44.77,390.2c4.96-1.24,9.97-2.26,15.03-3.05c0.18-0.03,1.17-0.18,0.39-0.06c-0.78,0.12,0.2-0.03,0.39-0.05
				c0.66-0.09,1.33-0.18,1.99-0.26c1.17-0.15,2.34-0.28,3.51-0.4c2.29-0.23,4.58-0.41,6.87-0.53c8.8-0.47,17.63-0.08,26.36,1.05
				c8.43,1.09,16.75,2.86,24.97,4.99c8.56,2.21,17.01,4.79,25.45,7.4c9.07,2.8,18.14,5.61,27.28,8.16
				c10.24,2.86,20.57,5.39,31.01,7.44c11.91,2.33,23.94,4.02,36.03,5.07c14.31,1.24,28.68,1.58,43.03,1.17
				c17.13-0.48,34.23-2.01,51.22-4.3c20.76-2.8,41.35-6.67,61.77-11.35c5.63-1.29,11.24-2.64,16.84-4.04
				c1.95-0.49,4.04-1.94,5.61-3.07c2.13-1.53,4.32-3.4,6.02-5.41c1.09-1.3,4.83-6.38,0.48-5.29c-21.07,5.27-42.34,9.81-63.8,13.21
				c-17.24,2.74-35.2,4.75-52.94,5.68c-14.84,0.78-29.73,0.82-44.57-0.08c-12.6-0.76-25.16-2.2-37.6-4.35
				c-10.73-1.85-21.35-4.23-31.88-7.01c-9.43-2.49-18.77-5.3-28.09-8.17c-8.52-2.62-17.03-5.3-25.63-7.68
				c-8.25-2.29-16.59-4.3-25.04-5.69c-8.53-1.4-17.16-2.15-25.81-2.07c-9.82,0.09-19.62,1.24-29.24,3.19
				c-2.54,0.51-5.06,1.09-7.57,1.72c-1.95,0.49-4.04,1.94-5.61,3.07c-2.13,1.53-4.32,3.4-6.02,5.41
				C44.16,386.21,40.42,391.29,44.77,390.2L44.77,390.2z"/>
		</g>
	</g>
</g>
</svg>
