<?xml version="1.0" encoding="utf-8"?>
<!-- Generator: Adobe Adobe Illustrator 24.2.0, SVG Export Plug-In . SVG Version: 6.00 Build 0)  -->
<svg version="1.1" id="Layer_1" xmlns="http://www.w3.org/2000/svg" xmlns:xlink="http://www.w3.org/1999/xlink" x="0px" y="0px"
	 width="500px" height="500px" viewBox="0 0 500 500" style="enable-background:new 0 0 500 500;" xml:space="preserve">
<style type="text/css">
	.st0{fill:#26323B;}
	.st1{fill:#FFFFFF;}
	.st2{fill:none;stroke:#26323B;stroke-width:2;stroke-miterlimit:10;}
	.st3{fill:url(#SVGID_1_);}
</style>
<g>
	<circle class="st0" cx="250" cy="250" r="250"/>
	<ellipse class="st1" cx="249.76" cy="250" rx="214.05" ry="213.95"/>
	<g>
		<path class="st0" d="M86.32,267.44c0,0-0.2-94.7-0.13-94.71c27.19-2.73,35.6-6.51,35.6-6.51s8.52,4.22,34.68,6.42l0.44,94.1
			L86.32,267.44z"/>
		<polygon class="st0" points="114.1,168.46 114.14,157.16 128.93,157.3 128.98,168.53 		"/>
		<line class="st2" x1="121.54" y1="96.89" x2="121.54" y2="166.81"/>
		<path class="st2" d="M137.21,171.14c-14.67-8.26-15.67-37.7-15.67-37.7s-0.7,27.83-15.29,37.86"/>
	</g>
	<polygon class="st0" points="185.66,312.08 187.4,85.91 207.38,77.93 260.69,81.39 261.27,312.03 	"/>
	<polygon class="st0" points="287,143.65 285.64,356.8 356.38,355.85 355.96,135.72 301.2,134.85 	"/>
	<path class="st0" d="M367.76,340.94c-0.39,0.01-0.71-0.33-0.71-0.76l-0.17-166.46l6.47-3.32l0.29-13.05
		c7.71,0,7.75-10.22,8.15-10.22l7.37-3.76h25.11c0.49,0,0.65,12.94,8.37,13.75l0.16,13.83l5.79,0.06l0.48,168.06
		c0,0.41-0.3,0.75-0.68,0.76L367.76,340.94z"/>
	<linearGradient id="SVGID_1_" gradientUnits="userSpaceOnUse" x1="243.0677" y1="282.5146" x2="243.0677" y2="473.399">
		<stop  offset="0" style="stop-color:#466374"/>
		<stop  offset="0.3705" style="stop-color:#476874"/>
		<stop  offset="0.7977" style="stop-color:#487675"/>
		<stop  offset="1" style="stop-color:#497F76"/>
	</linearGradient>
	<path class="st3" d="M35.89,258.94c0,0,121.27-18.94,214.11,54.58c65.83,52.13,200.24,12.22,200.24,12.22S409.61,464.49,250,464.49
		C34.32,456.22,35.89,258.94,35.89,258.94z"/>
	<g>
		<g>
			<path class="st0" d="M19.78,267.13c35.44-5.49,71.87-4.69,107,2.59c32.59,6.76,63.83,19.07,92.51,35.93
				c11.35,6.67,21.84,14.63,33.09,21.43c8,4.83,16.45,8.92,25.23,12.11c20.02,7.27,41.45,9.26,62.62,8.73
				c31.98-0.8,63.82-6.54,95.06-13.08c4.86-1.02,9.71-2.07,14.56-3.14c1.91-0.42,4.09-1.98,5.61-3.07c2.13-1.53,4.32-3.4,6.02-5.41
				c1.16-1.37,4.82-6.25,0.48-5.29c-32.48,7.21-65.46,13.73-98.75,15.53c-21.88,1.18-44.19,0.12-65.23-6.44
				c-8.78-2.74-16.89-6.28-24.95-10.78c-10.34-5.77-19.73-13-29.75-19.28c-28.08-17.59-58.9-30.95-91.09-38.9
				c-34.6-8.54-70.61-10.67-106.01-6.63c-4.77,0.54-9.53,1.21-14.27,1.94c-1.81,0.28-4.23,2.07-5.61,3.07
				c-2.13,1.53-4.32,3.4-6.02,5.41C18.95,263.4,15.5,267.8,19.78,267.13L19.78,267.13z"/>
		</g>
	</g>
	<g>
		<g>
			<path class="st0" d="M28.22,318.32c2.97-0.46,5.36-0.8,8.88-1.24c3.09-0.39,6.18-0.73,9.28-1.02c5.83-0.55,11.68-0.93,17.54-1.11
				c10.44-0.32,20.89-0.02,31.29,0.96c18.46,1.74,36.57,5.74,54.41,10.69c17.55,4.87,34.9,10.46,52.56,14.96
				c20.48,5.21,41.31,8.84,62.4,10.31c27.81,1.94,55.77,0.35,83.37-3.37c4.3-0.58,8.59-1.21,12.87-1.87
				c1.81-0.28,4.23-2.07,5.61-3.07c2.13-1.53,4.32-3.4,6.02-5.41c0.95-1.12,2.65-2.8,2.65-4.35c0-1.33-1.19-1.08-2.16-0.93
				c-28.21,4.39-57.13,6.66-85.8,5.34c-21.59-0.99-42.99-4.17-64.01-9.19c-17.88-4.27-35.41-9.82-53.08-14.88
				c-17.66-5.06-35.53-9.44-53.8-11.65c-21.84-2.64-43.91-2.19-65.71,0.61c-3.41,0.44-6.82,0.93-10.22,1.46
				c-1.81,0.28-4.23,2.07-5.61,3.07c-2.13,1.53-4.32,3.4-6.02,5.41c-0.95,1.12-2.65,2.8-2.65,4.35
				C26.05,318.72,27.25,318.47,28.22,318.32L28.22,318.32z"/>
		</g>
	</g>
	<g>
		<g>
			<path class="st0" d="M44.77,388.64c4.96-1.24,9.96-2.24,15-3.03c1.09-0.17-0.76,0.1,0.06-0.01c0.29-0.04,0.57-0.08,0.86-0.12
				c0.61-0.08,1.23-0.16,1.84-0.24c1.17-0.15,2.33-0.28,3.5-0.39c2.33-0.23,4.66-0.41,7-0.52c8.78-0.43,17.59-0.01,26.31,1.17
				c8.42,1.14,16.72,2.96,24.93,5.15c8.54,2.27,16.98,4.92,25.4,7.59c9.1,2.88,18.19,5.78,27.36,8.41
				c10.22,2.93,20.53,5.54,30.94,7.65c11.94,2.42,24.01,4.19,36.14,5.3c14.27,1.3,28.62,1.7,42.95,1.35
				c17.09-0.42,34.15-1.9,51.1-4.15c20.82-2.77,41.47-6.63,61.94-11.31c5.62-1.29,11.22-2.63,16.81-4.03
				c1.95-0.49,4.04-1.94,5.61-3.07c2.13-1.53,4.32-3.4,6.02-5.41c1.09-1.3,4.83-6.38,0.48-5.29c-21.13,5.29-42.46,9.82-63.98,13.2
				c-17.17,2.7-35.14,4.67-52.81,5.54c-14.82,0.74-29.67,0.72-44.48-0.25c-12.59-0.82-25.13-2.32-37.54-4.54
				c-10.77-1.92-21.43-4.39-31.98-7.26c-9.41-2.56-18.73-5.44-28.03-8.38c-8.55-2.7-17.08-5.46-25.7-7.91
				c-8.23-2.35-16.55-4.41-24.99-5.85c-8.51-1.45-17.12-2.24-25.76-2.2c-9.85,0.05-19.68,1.18-29.32,3.13
				c-2.53,0.51-5.05,1.09-7.55,1.71c-1.95,0.49-4.04,1.94-5.61,3.07c-2.13,1.53-4.32,3.4-6.02,5.41
				C44.16,384.65,40.42,389.72,44.77,388.64L44.77,388.64z"/>
		</g>
	</g>
</g>
</svg>
